<svg xmlns="http://www.w3.org/2000/svg" viewBox="0 0 160 80"><linearGradient gradientUnits="userSpaceOnUse" x1="80" y1="0" x2="80" y2="80" id="A"><stop offset="0" stop-color="#6e0202"/><stop offset=".85" stop-color="#8a0303"/></linearGradient><path d="M0 0h160v80H0V0z" fill="url(#A)"/><path fill="#fff" d="M52.53 32.037c-1.095.18-1.997.445-2.516 1.534-.466.978-.375 2.706-.375 3.8v7.03c.01.88.14 1.816.688 2.534C50.95 47.76 52.12 48 53.094 48h4.514c1.213-.002 2.556-.348 3.1-1.548.5-1.063.346-2.7.346-3.872v-7.32a3.88 3.88 0 0 0-.166-1.196c-.095-.307-.195-.58-.384-.845-1.07-1.513-3.368-1.197-5.012-1.182H52.53zm12.413 0c-1.095.18-1.998.445-2.517 1.534-.465.978-.375 2.706-.375 3.8v7.03c.01.88.14 1.816.7 2.534.622.815 1.792 1.055 2.767 1.056h4.514c1.213-.002 2.555-.348 3.1-1.548.5-1.063.345-2.7.345-3.872v-7.3c0-.42-.04-.792-.165-1.196-.096-.307-.195-.58-.384-.845-1.07-1.513-3.368-1.197-5.013-1.182h-2.962zM27 32.093V47.86h8.534c.347-.004.656-.057.987-.166a2.89 2.89 0 0 0 .776-.382c1.33-.952 1.128-2.6 1.128-4.027 0-1.278.154-2.56-1.2-3.264-.26-.134-.492-.197-.776-.255.523-.297.913-.444 1.25-.986.436-.698.372-1.335.372-2.1 0-1.518.18-3.28-1.4-4.13-.936-.504-2.403-.447-3.455-.447H27zm12.342 0V47.86h9.52v-3.026h-5.995v-12.74H39.34zm35.122 0V47.86h8.18c2.173-.003 3.24-1.462 3.244-3.52v-8.658c-.002-1.52-.512-2.788-2.045-3.33-.867-.306-2.504-.26-3.456-.26h-5.924zm12.694 0V47.86h8.534c.348-.004.657-.057.987-.166a2.89 2.89 0 0 0 .776-.382c1.332-.952 1.13-2.6 1.13-4.027 0-1.278.153-2.56-1.2-3.264-.26-.134-.493-.197-.776-.255.522-.297.912-.444 1.25-.986.436-.698.372-1.335.372-2.1 0-1.518.18-3.28-1.4-4.13-.936-.502-2.403-.445-3.455-.445H87.16zM99.3 47.86h3.314v-3.167h4.867v3.167h3.455v-3.026l-.102-1.197-1.304-4.012-1.1-3.308-.962-2.816-.47-1.407h-3.174c-.12 0-.36-.01-.464.04-.206.1-.376.786-.452 1.016l-2.798 8.164c-.326.977-.798 1.987-.8 3.027v3.52zm10.578-15.767V35.2h3.737v12.67h3.527V35.2h3.668v-3.107h-10.93zm11.707 0V47.86h3.525v-6.547h4.373v6.546H133V32.093h-3.526v6.194H125.1v-6.194h-3.526zM53.6 35.064h3.03c.257-.014.553-.038.754.156.16.154.158.327.163.533v8.376c-.001.273.027.54-.223.722-.226.165-.697.122-.976.122H54.16c-.236 0-.56.017-.756-.13-.345-.26-.23-1.35-.23-1.77v-7.18c.002-.18.004-.393.092-.556.095-.17.167-.2.333-.274zm12.412 0h3.03c.258-.014.553-.038.754.156.16.154.16.327.163.533v8.376c-.001.273.028.54-.222.722-.226.165-.698.122-.977.122h-2.186c-.236 0-.56.017-.756-.13-.346-.26-.23-1.35-.23-1.77v-7.18c.002-.18.003-.393.092-.556.094-.17.166-.2.332-.274zm-35.486 3.223V35.12h3.244c.2.001.45-.02.614.113.22.178.23.543.233.802V37.3c-.003.234-.02.635-.182.815-.18.197-.5.17-.735.17h-3.174zm60.16 0V35.12h3.244c.2.001.45-.02.613.113.22.178.23.543.233.802V37.3c-.003.234-.02.635-.182.815-.18.197-.5.17-.735.17h-3.173zM78 44.833V35.2h3.526c.2 0 .448-.02.624.112.1.083.167.18.216.3v8.306c.006.637-.053.905-.77.915H78zm27.082-8.658l.443 1.478 1.25 4.083H103.3l1.175-3.942c.13-.42.327-1.313.588-1.62zm-74.556 8.728v-3.66h2.82c.3 0 1.014-.042 1.266.092.316.17.285.444.286.753v2.04c-.002.596-.06.765-.705.774h-3.667zm60.16 0v-3.66h2.82c.3 0 1.013-.042 1.265.092.317.17.286.444.286.753v2.04c-.001.596-.058.765-.705.774h-3.667z"/></svg>
