<?xml version="1.0" standalone="no"?>
<!DOCTYPE svg PUBLIC "-//W3C//DTD SVG 1.1//EN" "http://www.w3.org/Graphics/SVG/1.1/DTD/svg11.dtd" >
<svg>
<metadata>
Created by FontForge 20120731 at Thu Jul 11 14:02:58 2019
 By www
Copyright (c) 2014 by Eduardo Manso. All rights reserved.
</metadata>
<defs>
<font id="ShentoxW01-Medium" horiz-adv-x="528" >
  <font-face 
    font-family="ShentoxW01-Medium"
    font-weight="500"
    font-stretch="normal"
    units-per-em="1000"
    panose-1="1 0 0 0 0 0 0 0 0 0"
    ascent="800"
    descent="-200"
    x-height="503"
    cap-height="697"
    bbox="-59 -198 1052 937"
    underline-thickness="50"
    underline-position="-125"
    unicode-range="U+000D-2122"
  />
<missing-glyph horiz-adv-x="843" 
d="M75 514q0 91 48 139t139 48h318q91 0 139 -48t48 -139v-331q0 -91 -48 -139t-139 -48h-318q-91 0 -139 48t-48 139v331zM263 645q-126 0 -126 -124v-345q0 -124 126 -124h317q125 0 125 124v345q0 124 -125 124h-317zM425 405l93 89q9 9 14.5 16.5t5.5 21.5v33h89v-43
q0 -29 -16 -48t-32 -33l-97 -88l114 -100q20 -17 28 -34.5t8 -38.5v-49h-91v37q0 12 -5.5 21.5t-14.5 17.5l-105 93l-96 -96q-9 -9 -14.5 -16.5t-5.5 -20.5v-36h-89v40q0 29 16.5 51t32.5 36l99 92l-107 96q-36 33 -36 72v47h91v-35q0 -12 5 -21t15 -17z" />
    <glyph glyph-name=".notdef" horiz-adv-x="843" 
d="M75 514q0 91 48 139t139 48h318q91 0 139 -48t48 -139v-331q0 -91 -48 -139t-139 -48h-318q-91 0 -139 48t-48 139v331zM263 645q-126 0 -126 -124v-345q0 -124 126 -124h317q125 0 125 124v345q0 124 -125 124h-317zM425 405l93 89q9 9 14.5 16.5t5.5 21.5v33h89v-43
q0 -29 -16 -48t-32 -33l-97 -88l114 -100q20 -17 28 -34.5t8 -38.5v-49h-91v37q0 12 -5.5 21.5t-14.5 17.5l-105 93l-96 -96q-9 -9 -14.5 -16.5t-5.5 -20.5v-36h-89v40q0 29 16.5 51t32.5 36l99 92l-107 96q-36 33 -36 72v47h91v-35q0 -12 5 -21t15 -17z" />
    <glyph glyph-name="glyph1" horiz-adv-x="500" 
 />
    <glyph glyph-name="glyph1" horiz-adv-x="500" 
 />
    <glyph glyph-name="uni000D" unicode="&#xd;" horiz-adv-x="228" 
 />
    <glyph glyph-name="space" unicode=" " horiz-adv-x="228" 
 />
    <glyph glyph-name="exclam" unicode="!" horiz-adv-x="274" 
d="M87 121h101v-121h-101v121zM101 184q-2 12 -4.5 46t-4.5 70q-3 42 -6 91v306h103v-306l-14 -207h-74z" />
    <glyph glyph-name="quotedbl" unicode="&#x22;" horiz-adv-x="346" 
d="M73 421l-14 192v84h87v-84l-14 -192h-59zM215 421l-15 192v84h87v-84l-14 -192h-58z" />
    <glyph glyph-name="numbersign" unicode="#" horiz-adv-x="622" 
d="M74 489h106l44 208h80l-45 -208h162l44 208h81l-45 -208h87v-72h-102l-30 -138h92v-73h-107l-44 -206h-79l43 206h-162l-44 -206h-79l43 206h-85v73h101l29 138h-90v72zM214 279h163l29 138h-162z" />
    <glyph glyph-name="dollar" unicode="$" horiz-adv-x="560" 
d="M324 -4v-106h-86v106h-37q-71 0 -108.5 34.5t-37.5 100.5v67h98v-70q0 -49 58 -49h136q31 0 44.5 13.5t13.5 35.5v117q0 20 -8.5 30t-27.5 15l-219 57q-16 4 -32 12.5t-28.5 22.5t-20.5 34.5t-8 49.5v100q0 66 38 100.5t110 34.5h29v106h86v-106h27q70 0 107.5 -34.5
t37.5 -100.5v-73h-98v76q0 49 -57 49h-124q-58 0 -58 -49v-90q0 -21 6.5 -32t29.5 -17l213 -55q49 -13 72 -42t23 -71v-131q0 -66 -38 -100.5t-110 -34.5h-31z" />
    <glyph glyph-name="percent" unicode="%" horiz-adv-x="768" 
d="M460 285q0 42 23 64.5t65 22.5h88q43 0 65 -22.5t22 -64.5v-200q0 -87 -87 -87h-88q-42 0 -65 22t-23 65v200zM537 87q0 -24 25 -24h61q25 0 25 24v195q0 24 -25 24h-61q-25 0 -25 -24v-195zM44 613q0 42 23 64.5t65 22.5h88q43 0 65 -22.5t22 -64.5v-200q0 -87 -87 -87
h-88q-42 0 -65 22t-23 65v200zM121 415q0 -24 25 -24h61q25 0 25 24v195q0 24 -25 24h-61q-25 0 -25 -24v-195zM133 -4l426 705h78l-427 -705h-77z" />
    <glyph glyph-name="ampersand" unicode="&#x26;" horiz-adv-x="659" 
d="M452 60q-6 -10 -16 -21t-25 -20.5t-36 -16t-50 -6.5h-128q-72 0 -109.5 33.5t-37.5 99.5v110q0 31 9 53t23 37t31.5 24.5t34.5 16.5l26 10l-6 8q-13 15 -29.5 44t-16.5 71v65q0 66 37.5 99.5t107.5 33.5h85q71 0 108 -33.5t37 -99.5v-72h-93v69q0 56 -57 56h-75
q-56 0 -56 -56v-58q0 -23 8.5 -39t17.5 -27l202 -233l48 77q10 16 13.5 28.5t3.5 35.5v36h90v-48q0 -26 -7.5 -45.5t-11.5 -25.5l-78 -125l8 -8q20 -24 35 -35.5t37 -11.5h43v-86h-59q-35 0 -63 17t-51 43zM323 76q24 0 39 11t26 30l6 10l-166 191l-38 -14q-21 -8 -34 -20.5
t-13 -41.5v-110q0 -56 57 -56h123z" />
    <glyph glyph-name="quotesingle" unicode="'" horiz-adv-x="207" 
d="M73 421l-14 192v84h90v-84l-15 -192h-61z" />
    <glyph glyph-name="parenleft" unicode="(" horiz-adv-x="299" 
d="M264 -190h-50q-69 0 -106 37.5t-37 109.5v666q0 72 37 109.5t106 37.5h49v-86h-40q-53 0 -53 -56v-676q0 -56 53 -56h41v-86z" />
    <glyph glyph-name="parenright" unicode=")" horiz-adv-x="299" 
d="M35 -104h41q53 0 53 56v676q0 56 -53 56h-40v86h49q69 0 106 -37.5t37 -109.5v-666q0 -72 -37 -109.5t-106 -37.5h-50v86z" />
    <glyph glyph-name="asterisk" unicode="*" horiz-adv-x="453" 
d="M279 504l32 -14q8 -4 23 -10.5t33 -16.5l44 -24l-32 -56l-44 24q-17 10 -31 19t-20 13l-33 21l4 -37q1 -8 2.5 -24.5t1.5 -36.5v-50h-65v50q0 20 1.5 36.5t1.5 24.5l3 38l-31 -22l-19.5 -13t-30.5 -19l-44 -24l-32 56l44 24q18 10 32.5 16.5t21.5 10.5l32 14l-32 15
q-8 4 -22.5 10.5t-32.5 15.5l-43 25l31 55l44 -24q18 -9 31.5 -18.5t19.5 -13.5l32 -22l-4 39q0 8 -1.5 24.5t-1.5 36.5v50h65v-50q0 -20 -1.5 -36.5t-2.5 -24.5l-4 -39l33 22q6 4 20 13.5t31 18.5l44 24l32 -55l-44 -25q-17 -9 -32.5 -15.5t-22.5 -10.5z" />
    <glyph glyph-name="plus" unicode="+" horiz-adv-x="491" 
d="M282 312v-147h-74v147h-146v73h146v147h74v-147h147v-73h-147z" />
    <glyph glyph-name="comma" unicode="," horiz-adv-x="232" 
d="M175 88l-77 -189h-61l36 222h102v-33z" />
    <glyph glyph-name="hyphen" unicode="-" horiz-adv-x="388" 
d="M324 327v-82h-260v82h260z" />
    <glyph glyph-name="period" unicode="." horiz-adv-x="228" 
d="M63 121h102v-121h-102v121z" />
    <glyph glyph-name="slash" unicode="/" horiz-adv-x="452" 
d="M21 -73l318 843h92l-319 -843h-91z" />
    <glyph glyph-name="zero" unicode="0" horiz-adv-x="574" 
d="M67 554q0 71 37.5 109t109.5 38h145q71 0 109 -38t38 -109v-411q0 -71 -38 -109t-109 -38h-145q-72 0 -109.5 38t-37.5 109v411zM351 82q56 0 56 59v415q0 59 -56 59h-128q-57 0 -57 -59v-415q0 -59 57 -59h128z" />
    <glyph glyph-name="one" unicode="1" horiz-adv-x="480" 
d="M43 0v86h162v525h-162v86h260v-611h157v-86h-417z" />
    <glyph glyph-name="two" unicode="2" horiz-adv-x="549" 
d="M59 0v181q0 25 4.5 46t15.5 39t30.5 32.5t48.5 25.5l194 73q17 6 27.5 16.5t10.5 39.5v106q0 56 -57 56h-117q-57 0 -57 -56v-87h-96v82q0 71 37.5 109t109.5 38h132q72 0 109.5 -38t37.5 -109v-101q0 -56 -25 -85.5t-65 -44.5l-201 -76q-27 -11 -34 -24t-7 -37v-99h341
v-87h-439z" />
    <glyph glyph-name="three" unicode="3" horiz-adv-x="554" 
d="M197 -4q-70 0 -107.5 35.5t-37.5 101.5v62h97v-63q0 -52 56 -52h131q57 0 57 56v132q0 50 -53 50h-139v83h125q53 0 53 51v110q0 54 -57 54h-114q-57 0 -57 -50v-64h-97v62q0 66 37 101.5t108 35.5h132q72 0 109.5 -36t37.5 -105v-90q0 -38 -14 -64t-44 -40
q38 -11 55 -39.5t17 -68.5v-121q0 -69 -37.5 -105t-109.5 -36h-148z" />
    <glyph glyph-name="four" unicode="4" horiz-adv-x="562" 
d="M448 176v-176h-99v176h-325v82l335 441h89v-441h74v-82h-74zM349 559l-229 -301h229v301z" />
    <glyph glyph-name="five" unicode="5" horiz-adv-x="545" 
d="M199 -4q-70 0 -107 35.5t-37 101.5v60h96v-63q0 -51 57 -51h130q56 0 56 55v146q0 54 -56 54h-267v363h399v-87h-302v-192h178q72 0 109.5 -35.5t37.5 -104.5v-141q0 -69 -37.5 -105t-109.5 -36h-147z" />
    <glyph glyph-name="six" unicode="6" horiz-adv-x="565" 
d="M507 143q0 -72 -37.5 -109.5t-109.5 -37.5h-145q-72 0 -109.5 37.5t-37.5 109.5v411q0 72 37.5 109.5t109.5 37.5h143q69 0 106.5 -36t37.5 -103v-57h-96v58q0 52 -57 52h-125q-57 0 -57 -56v-155h197q70 0 106.5 -36t36.5 -104v-121zM351 82q57 0 57 56v127q0 53 -53 53
h-188v-180q0 -56 57 -56h127z" />
    <glyph glyph-name="seven" unicode="7" horiz-adv-x="502" 
d="M120 0l258 610h-356v87h459v-77l-260 -620h-101z" />
    <glyph glyph-name="eight" unicode="8" horiz-adv-x="572" 
d="M212 -4q-72 0 -109.5 37t-37.5 106v109q0 44 16.5 74t54.5 43q-32 14 -46.5 43t-14.5 71v79q0 69 37.5 106t109.5 37h129q71 0 109 -37t38 -106v-79q0 -42 -14.5 -71t-47.5 -43q38 -13 55 -43t17 -74v-109q0 -69 -38 -106t-109 -37h-149zM229 618q-57 0 -57 -57v-103
q0 -56 57 -56h115q57 0 57 56v103q0 57 -57 57h-115zM219 320q-57 0 -57 -57v-127q0 -57 57 -57h135q57 0 57 57v127q0 57 -57 57h-135z" />
    <glyph glyph-name="nine" unicode="9" horiz-adv-x="564" 
d="M206 -4q-70 0 -107.5 36t-37.5 103v57h97v-58q0 -52 57 -52h125q57 0 57 56v168h-197q-71 0 -107 35.5t-36 104.5v108q0 72 37.5 109.5t109.5 37.5h144q74 0 110.5 -37.5t36.5 -109.5v-411q0 -72 -37.5 -109.5t-109.5 -37.5h-142zM397 391v168q0 56 -57 56h-128
q-57 0 -57 -56v-115q0 -53 53 -53h189z" />
    <glyph glyph-name="colon" unicode=":" horiz-adv-x="230" 
d="M64 121h102v-121h-102v121zM64 503h102v-121h-102v121z" />
    <glyph glyph-name="semicolon" unicode=";" horiz-adv-x="255" 
d="M84 503h102v-121h-102v121zM186 88l-78 -189h-60l35 222h103v-33z" />
    <glyph glyph-name="less" unicode="&#x3c;" horiz-adv-x="491" 
d="M48 314v72l367 175v-86l-274 -125l274 -126v-85z" />
    <glyph glyph-name="equal" unicode="=" horiz-adv-x="491" 
d="M429 296v-73h-367v73h367zM429 481v-73h-367v73h367z" />
    <glyph glyph-name="greater" unicode="&#x3e;" horiz-adv-x="491" 
d="M76 139v85l274 126l-274 125v86l367 -175v-72z" />
    <glyph glyph-name="question" unicode="?" horiz-adv-x="533" 
d="M370 431q7 5 18 15t11 28v85q0 56 -57 56h-159q-57 0 -57 -56v-71h-95v70q0 70 37.5 106.5t109.5 36.5h171q72 0 109.5 -35.5t37.5 -104.5v-83q0 -24 -6.5 -41.5t-17.5 -31t-24.5 -24t-27.5 -19.5l-95 -61q-15 -10 -23 -18t-8 -27v-72h-89v82q0 38 14 56.5t35 32.5z
M199 121h102v-121h-102v121z" />
    <glyph glyph-name="at" unicode="@" horiz-adv-x="839" 
d="M243 -87q-86 0 -132.5 46.5t-46.5 132.5v430q0 86 46.5 132.5t132.5 46.5h365q86 0 132.5 -46.5t46.5 -132.5v-284q0 -70 -33.5 -106.5t-98.5 -36.5h-42q-38 0 -68 14t-44 43l-61 -38q-14 -9 -28.5 -14t-39.5 -5h-41q-25 0 -45.5 8t-34 23t-19 36.5t0.5 49.5l41 192
q5 24 13.5 43.5t22 32.5t34 20t50.5 7h51q25 0 37.5 -5.5t25.5 -14.5l38 -27l13 43h71l-61 -289q-5 -24 8.5 -37.5t40.5 -13.5h31q53 0 53 60v310q0 96 -97 96h-359q-97 0 -97 -96v-451q0 -97 97 -97h366v-72h-369zM383 162q17 0 25 3.5t21 11.5l64 39q1 2 1 5q0 6 1 9
l35 167l-42 29q-11 8 -18 11t-26 3h-46q-21 0 -31.5 -10.5t-15.5 -32.5l-41 -185q-12 -50 44 -50h29z" />
    <glyph glyph-name="A" unicode="A" horiz-adv-x="577" 
d="M44 0v159q0 20 4.5 37t7.5 24l181 479h104l180 -479q3 -6 7.5 -23.5t4.5 -37.5v-159h-96v148v9t-1 8h-298v-165h-94zM163 248h249l-125 350z" />
    <glyph glyph-name="B" unicode="B" horiz-adv-x="613" 
d="M79 697h313q73 0 110 -36.5t37 -106.5v-85q0 -37 -16.5 -64.5t-48.5 -41.5q41 -10 60.5 -38.5t19.5 -70.5v-111q0 -70 -37 -106.5t-110 -36.5h-328v697zM178 613v-210h211q52 0 52 48v109q0 53 -56 53h-207zM178 319v-235h221q57 0 57 56v130q0 49 -53 49h-225z" />
    <glyph glyph-name="C" unicode="C" horiz-adv-x="580" 
d="M531 232v-89q0 -72 -37.5 -109.5t-109.5 -37.5h-168q-72 0 -109.5 37.5t-37.5 109.5v411q0 72 37.5 109.5t109.5 37.5h168q72 0 109.5 -37.5t37.5 -109.5v-65h-97v70q0 56 -57 56h-153q-56 0 -56 -56v-421q0 -56 56 -56h153q57 0 57 56v94h97z" />
    <glyph glyph-name="D" unicode="D" horiz-adv-x="622" 
d="M79 697h317q78 0 118 -40.5t40 -118.5v-379q0 -78 -40 -118.5t-118 -40.5h-317v697zM393 87q62 0 62 62v399q0 62 -62 62h-215v-523h215z" />
    <glyph glyph-name="E" unicode="E" horiz-adv-x="558" 
d="M79 697h429v-85h-330v-210h305v-83h-305v-234h338v-85h-437v697z" />
    <glyph glyph-name="F" unicode="F" horiz-adv-x="547" 
d="M178 292v-292h-99v697h439v-85h-340v-235h315v-85h-315z" />
    <glyph glyph-name="G" unicode="G" horiz-adv-x="592" 
d="M531 143q0 -72 -37.5 -109.5t-109.5 -37.5h-168q-72 0 -109.5 37.5t-37.5 109.5v411q0 72 37.5 109.5t109.5 37.5h168q72 0 109.5 -37.5t37.5 -109.5v-65h-97v70q0 56 -57 56h-153q-56 0 -56 -56v-421q0 -56 56 -56h153q57 0 57 56v129h-116v80h213v-204v0z" />
    <glyph glyph-name="H" unicode="H" horiz-adv-x="634" 
d="M455 317h-277v-317h-99v697h99v-294h277v294h99v-697h-99v317z" />
    <glyph glyph-name="I" unicode="I" horiz-adv-x="258" 
d="M79 697h99v-697h-99v697z" />
    <glyph glyph-name="J" unicode="J" horiz-adv-x="525" 
d="M449 697v-554q0 -72 -37.5 -109.5t-109.5 -37.5h-128q-72 0 -109.5 37.5t-37.5 109.5v82h98v-85q0 -57 57 -57h111q57 0 57 57v557h99z" />
    <glyph glyph-name="K" unicode="K" horiz-adv-x="605" 
d="M178 319v-319h-99v697h99v-295h137l129 125q8 8 11 20t3 27v123h94v-144q0 -20 -7 -36t-17 -27l-134 -129l142 -163q5 -7 11.5 -20.5t6.5 -34.5v-143h-99v121q0 17 -3 26t-9 16l-136 156h-129z" />
    <glyph glyph-name="L" unicode="L" horiz-adv-x="498" 
d="M79 697h99v-611h308v-86h-407v697z" />
    <glyph glyph-name="M" unicode="M" horiz-adv-x="728" 
d="M170 522v-522h-91v697h96l191 -360l188 360h95v-697h-92v523l-159 -298h-65z" />
    <glyph glyph-name="N" unicode="N" horiz-adv-x="634" 
d="M171 515v-515h-92v697h93l291 -515v515h91v-697h-90z" />
    <glyph glyph-name="O" unicode="O" horiz-adv-x="612" 
d="M216 -4q-72 0 -109.5 37.5t-37.5 109.5v411q0 72 37.5 109.5t109.5 37.5h181q72 0 109.5 -37.5t37.5 -109.5v-411q0 -72 -37.5 -109.5t-109.5 -37.5h-181zM168 141q0 -59 56 -59h164q57 0 57 56v421q0 56 -57 56h-164q-56 0 -56 -56v-418z" />
    <glyph glyph-name="P" unicode="P" horiz-adv-x="575" 
d="M178 255v-255h-99v697h308q72 0 109.5 -37.5t37.5 -109.5v-148q0 -72 -37.5 -109.5t-109.5 -37.5h-209zM178 611v-269h201q56 0 56 56v156q0 57 -56 57h-201z" />
    <glyph glyph-name="Q" unicode="Q" horiz-adv-x="612" 
d="M380 -4l75 -151h-105l-75 151h-59q-72 0 -109.5 37.5t-37.5 109.5v411q0 72 37.5 109.5t109.5 37.5h181q72 0 109.5 -37.5t37.5 -109.5v-411q0 -72 -37.5 -109.5t-109.5 -37.5h-17zM168 141q0 -59 56 -59h164q57 0 57 56v421q0 56 -57 56h-164q-56 0 -56 -56v-418z" />
    <glyph glyph-name="R" unicode="R" horiz-adv-x="589" 
d="M336 277h-158v-277h-99v697h308q72 0 109.5 -37.5t37.5 -109.5v-126q0 -118 -98 -142l99 -282h-106zM178 612v-250h201q56 0 56 57v137q0 56 -56 56h-201z" />
    <glyph glyph-name="S" unicode="S" horiz-adv-x="581" 
d="M60 566q0 66 37.5 100.5t109.5 34.5h166q70 0 107.5 -34.5t37.5 -100.5v-73h-97v76q0 49 -58 49h-148q-58 0 -58 -49v-89q0 -21 6.5 -32t29.5 -17l235 -62q48 -13 72.5 -42.5t24.5 -73.5v-122q0 -66 -38 -100.5t-110 -34.5h-178q-71 0 -108 34.5t-37 100.5v67h97v-70
q0 -49 58 -49h160q31 0 44.5 13.5t13.5 35.5v110q0 20 -8.5 30t-27.5 15l-240 63q-18 5 -34.5 13.5t-29 23t-20 35.5t-7.5 51v97z" />
    <glyph glyph-name="T" unicode="T" horiz-adv-x="507" 
d="M303 611v-611h-99v611h-182v86h462v-86h-181z" />
    <glyph glyph-name="U" unicode="U" horiz-adv-x="626" 
d="M551 697v-554q0 -72 -37.5 -109.5t-109.5 -37.5h-181q-72 0 -109.5 37.5t-37.5 109.5v554h99v-557q0 -57 56 -57h164q57 0 57 57v557h99z" />
    <glyph glyph-name="V" unicode="V" horiz-adv-x="571" 
d="M56 477q-3 7 -7 23.5t-4 36.5v160h99v-148q0 -17 1 -28t5 -21l137 -389l137 389q3 10 5 21t2 28v148h97v-160q0 -20 -4.5 -36t-8.5 -24l-177 -477h-104z" />
    <glyph glyph-name="W" unicode="W" horiz-adv-x="792" 
d="M745 697v-160q0 -20 -4.5 -37t-6.5 -24l-136 -476h-98l-104 359l-103 -359h-98l-137 476q-2 7 -6 24t-4 37v160h95v-148q0 -17 2 -28t4 -21l98 -368l97 368q3 10 5.5 21t2.5 28v148h89v-150q0 -14 2.5 -26t4.5 -21l97 -368l98 368q3 10 4.5 21t1.5 28v148h96z" />
    <glyph glyph-name="X" unicode="X" horiz-adv-x="573" 
d="M143 0h-95v133q0 25 7.5 41t18.5 26l148 156l-150 156q-5 6 -13.5 20.5t-8.5 37.5v127h99v-104q0 -20 5 -30t14 -20l124 -129l120 127q16 17 16 51v105h95v-126q0 -24 -8 -40t-18 -26l-145 -153l152 -158q6 -7 14 -21.5t8 -39.5v-133h-98v112q0 20 -5 30t-14 19l-127 132
l-123 -129q-16 -17 -16 -52v-112z" />
    <glyph glyph-name="Y" unicode="Y" horiz-adv-x="552" 
d="M227 0v244l-173 262q-5 7 -10.5 23t-5.5 40v128h98v-117q0 -32 13 -51l130 -197l127 191q7 10 10.5 22t3.5 29v123h95v-128q0 -25 -6 -40.5t-11 -22.5l-172 -258v-248h-99z" />
    <glyph glyph-name="Z" unicode="Z" horiz-adv-x="536" 
d="M29 0v85l353 527h-335v85h448v-86l-354 -526h364v-85h-476z" />
    <glyph glyph-name="bracketleft" unicode="[" horiz-adv-x="300" 
d="M255 -190h-167v960h165v-85h-66v-790h68v-85z" />
    <glyph glyph-name="backslash" unicode="\" horiz-adv-x="452" 
d="M340 -73l-319 843h92l318 -843h-91z" />
    <glyph glyph-name="bracketright" unicode="]" horiz-adv-x="300" 
d="M45 -105h68v790h-66v85h164v-960h-166v85z" />
    <glyph glyph-name="asciicircum" unicode="^" horiz-adv-x="500" 
d="M250 601l-131 -293h-86l181 391h71l181 -391h-85z" />
    <glyph glyph-name="underscore" unicode="_" horiz-adv-x="477" 
d="M423 -92v-76h-369v76h369z" />
    <glyph glyph-name="grave" unicode="`" horiz-adv-x="258" 
d="M59 697h93l48 -132h-64l-77 113v19z" />
    <glyph glyph-name="a" unicode="a" horiz-adv-x="502" 
d="M309 22q-18 -12 -34 -19t-45 -7h-59q-57 0 -90.5 27.5t-33.5 84.5v62q0 59 35.5 84.5t90.5 31.5l174 20v74q0 50 -52 50h-95q-52 0 -52 -50v-32h-91v28q0 65 35.5 98t101.5 33h114q64 0 98 -33t34 -96v-378h-84l-5 50zM238 73q18 0 28 4t22 12l59 38v104l-159 -19
q-24 -3 -36.5 -12t-12.5 -34v-51q0 -23 10.5 -32.5t35.5 -9.5h53z" />
    <glyph glyph-name="b" unicode="b" 
d="M275 -4q-28 0 -43.5 5.5t-30.5 16.5l-46 31l-5 -49h-85v697h94v-239l42 27q16 10 31 16t43 6h70q61 0 93 -32.5t32 -92.5v-261q0 -60 -32 -92.5t-93 -32.5h-70zM326 78q50 0 50 50v247q0 50 -50 50h-52q-20 0 -29.5 -4t-22.5 -12l-63 -41v-233l63 -41q13 -8 22.5 -12
t29.5 -4h52z" />
    <glyph glyph-name="c" unicode="c" horiz-adv-x="491" 
d="M195 -4q-68 0 -103.5 35.5t-35.5 104.5v231q0 69 35.5 104.5t103.5 35.5h113q66 0 101.5 -35.5t35.5 -104.5v-33h-92v39q0 52 -52 52h-99q-52 0 -52 -52v-243q0 -52 52 -52h99q52 0 52 52v50h92v-44q0 -69 -35.5 -104.5t-101.5 -35.5h-113v0z" />
    <glyph glyph-name="d" unicode="d" 
d="M328 18q-16 -11 -31.5 -16.5t-43.5 -5.5h-70q-60 0 -92.5 32.5t-32.5 92.5v261q0 60 32.5 92.5t92.5 32.5h70q28 0 43.5 -5.5t31.5 -16.5l41 -27v239h94v-697h-84l-6 49zM255 78q20 0 29 4t22 12l63 41v233l-63 41q-13 8 -22 12t-29 4h-52q-51 0 -51 -50v-247
q0 -50 51 -50h52z" />
    <glyph glyph-name="e" unicode="e" horiz-adv-x="501" 
d="M449 132q0 -67 -35.5 -101.5t-102.5 -34.5h-116q-68 0 -103.5 35.5t-35.5 104.5v231q0 69 35.5 104.5t103.5 35.5h116q67 0 102.5 -35.5t35.5 -104.5v-141h-300v-102q0 -52 52 -52h104q52 0 52 52v34h92v-26zM149 301h209v78q0 52 -52 52h-105q-52 0 -52 -52v-78z" />
    <glyph glyph-name="f" unicode="f" horiz-adv-x="353" 
d="M196 418v-418h-94v418h-79v82h79v57q0 140 140 140h97v-82h-93q-50 0 -50 -52v-63h141v-82h-141z" />
    <glyph glyph-name="g" unicode="g" 
d="M204 -194q-66 0 -101.5 34t-35.5 97v19h92v-24q0 -50 52 -50h108q52 0 52 50v138l-43 -28q-16 -10 -31.5 -16t-43.5 -6h-70q-60 0 -92.5 32.5t-32.5 92.5v237q0 60 32.5 92.5t92.5 32.5h70q28 0 43.5 -6t31.5 -16l47 -31l5 49h83v-560q0 -137 -139 -137h-120zM255 102
q20 0 29 4t22 12l65 42v207l-65 42q-13 8 -22 12t-29 4h-54q-50 0 -50 -50v-223q0 -50 50 -50h54z" />
    <glyph glyph-name="h" unicode="h" horiz-adv-x="533" 
d="M159 368v-368h-94v697h94v-239l42 27q16 10 31 16t43 6h70q61 0 93 -32t32 -93v-382h-94v375q0 50 -49 50h-53q-20 0 -29.5 -4t-22.5 -12z" />
    <glyph glyph-name="i" unicode="i" horiz-adv-x="224" 
d="M65 503h94v-503h-94v503zM63 697h98v-112h-98v112z" />
    <glyph glyph-name="j" unicode="j" horiz-adv-x="224" 
d="M-48 -108h62q51 0 51 52v559h94v-553q0 -68 -35.5 -104t-103.5 -36h-68v82zM63 697h98v-112h-98v112z" />
    <glyph glyph-name="k" unicode="k" horiz-adv-x="515" 
d="M159 230v-230h-94v697h94v-386h77l125 92q10 7 15 15.5t5 22.5v62h85v-78q0 -16 -5.5 -28t-13 -21.5t-15.5 -16.5t-14 -11l-100 -74l119 -111q36 -33 36 -74v-89h-91v75q0 13 -5 22t-15 19l-121 114h-82z" />
    <glyph glyph-name="l" unicode="l" horiz-adv-x="226" 
d="M160 697v-697h-94v697h94z" />
    <glyph glyph-name="m" unicode="m" horiz-adv-x="830" 
d="M159 368v-368h-94v503h85l5 -49l46 31q15 11 30.5 16.5t43.5 5.5h63q81 0 111 -59l56 37q16 11 31 16.5t43 5.5h63q60 0 92.5 -32t32.5 -93v-382h-94v375q0 50 -50 50h-45q-20 0 -29.5 -4t-22.5 -12l-63 -41v-368h-94v375q0 50 -50 50h-45q-20 0 -29.5 -4t-22.5 -12z" />
    <glyph glyph-name="n" unicode="n" horiz-adv-x="533" 
d="M274 425q-20 0 -30 -4t-22 -12l-63 -42v-367h-94v503h85l4 -49l47 31q16 10 31 16t43 6h70q61 0 93 -32t32 -93v-382h-94v375q0 50 -49 50h-53z" />
    <glyph glyph-name="o" unicode="o" horiz-adv-x="517" 
d="M195 -4q-68 0 -103.5 35.5t-35.5 104.5v231q0 69 35.5 104.5t103.5 35.5h127q67 0 103 -35.5t36 -104.5v-231q0 -69 -36 -104.5t-103 -35.5h-127zM315 76q26 0 39 14.5t13 37.5v247q0 52 -52 52h-113q-52 0 -52 -52v-247q0 -52 52 -52h113z" />
    <glyph glyph-name="p" unicode="p" 
d="M159 45v-235h-94v693h85l5 -49l46 31q15 11 30.5 16.5t43.5 5.5h70q61 0 93 -32.5t32 -92.5v-261q0 -60 -32 -92.5t-93 -32.5h-70q-28 0 -43 6t-31 16zM326 78q50 0 50 50v247q0 50 -50 50h-52q-20 0 -29.5 -4t-22.5 -12l-63 -41v-233l63 -41q13 -8 22.5 -12t29.5 -4h52z
" />
    <glyph glyph-name="q" unicode="q" 
d="M369 -190v235l-41 -27q-16 -11 -31.5 -16.5t-43.5 -5.5h-70q-60 0 -92.5 32.5t-32.5 92.5v261q0 60 32.5 92.5t92.5 32.5h70q28 0 43.5 -5.5t31.5 -16.5l45 -30l5 48h85v-693h-94zM255 78q20 0 29 4t22 12l63 41v233l-63 41q-13 8 -22 12t-29 4h-52q-51 0 -51 -50v-247
q0 -50 51 -50h52z" />
    <glyph glyph-name="r" unicode="r" horiz-adv-x="362" 
d="M65 0v503h85l6 -62l53 44q14 11 30 16.5t44 5.5h72v-82h-68q-21 0 -30.5 -4t-21.5 -12l-76 -64v-345h-94z" />
    <glyph glyph-name="s" unicode="s" horiz-adv-x="489" 
d="M139 159v-44q0 -45 52 -45h106q52 0 52 43v50q0 26 -28 33l-193 47q-14 3 -27 9.5t-24 17.5t-17.5 27t-6.5 39v51q0 60 36 90t103 30h105q66 0 101.5 -32t35.5 -94v-28h-91v35q0 45 -52 45h-94q-27 0 -39.5 -11t-12.5 -30v-46q0 -15 6.5 -21t20.5 -10l189 -46
q42 -10 61 -34t19 -56v-63q0 -120 -140 -120h-116q-66 0 -102 32t-36 94v37h92z" />
    <glyph glyph-name="t" unicode="t" horiz-adv-x="362" 
d="M337 0h-100q-67 0 -101.5 35.5t-34.5 101.5v281h-79v82h79v140h94v-140h141v-82h-141v-286q0 -50 50 -50h92v-82z" />
    <glyph glyph-name="u" unicode="u" 
d="M328 18q-16 -11 -31.5 -16.5t-43.5 -5.5h-65q-60 0 -92.5 32t-32.5 93v382h94v-375q0 -50 50 -50h47q20 0 30 4t22 12l63 41v368h94v-503h-85l-5 49l-45 -31v0z" />
    <glyph glyph-name="v" unicode="v" horiz-adv-x="490" 
d="M55 313q-3 7 -8 21.5t-5 34.5v134h94v-123q0 -17 2.5 -27t6.5 -19l101 -240l102 240q3 9 5.5 19t2.5 27v123h92v-134q0 -20 -5.5 -34.5t-7.5 -21.5l-142 -313h-97z" />
    <glyph glyph-name="w" unicode="w" horiz-adv-x="723" 
d="M56 313q-2 7 -7.5 21.5t-5.5 34.5v134h91v-123q0 -17 3 -26.5t6 -18.5l83 -231l83 231q3 9 6 18.5t3 26.5v123h90v-123q0 -17 3 -26.5t6 -18.5l83 -231l83 231q3 9 5.5 19t2.5 26v123h90v-134q0 -19 -5.5 -34t-8.5 -22l-120 -313h-95l-90 236l-91 -236h-94z" />
    <glyph glyph-name="x" unicode="x" horiz-adv-x="506" 
d="M131 0h-89v75q0 29 16 51t32 36l101 93l-108 95q-20 17 -28 34.5t-8 38.5v80h89v-67q0 -13 5.5 -22.5t14.5 -17.5l99 -88l94 91q8 8 14 16t6 22v66h89v-77q0 -27 -16.5 -47t-31.5 -34l-97 -88l114 -101q36 -32 36 -72v-84h-90v71q0 23 -20 40l-106 94l-96 -96
q-10 -10 -15 -18t-5 -21v-70z" />
    <glyph glyph-name="y" unicode="y" horiz-adv-x="490" 
d="M72 -190v81h61q18 0 28.5 8.5t18.5 28.5l25 59l-151 326q-3 6 -8 21.5t-5 34.5v134h94v-123q0 -17 2.5 -27t6.5 -19l105 -237l98 237q4 9 6.5 19t2.5 27v123h91v-134q0 -17 -5.5 -33.5l-7.5 -22.5l-166 -396q-11 -26 -21.5 -46t-24 -33.5t-31 -20.5t-41.5 -7h-78z" />
    <glyph glyph-name="z" unicode="z" horiz-adv-x="467" 
d="M431 79v-79h-395v71l271 353h-262v79h378v-71l-271 -353h279z" />
    <glyph glyph-name="braceleft" unicode="{" horiz-adv-x="330" 
d="M202 -48q0 -56 53 -56h40v-86h-53q-67 0 -103 37.5t-36 109.5v247q0 41 -40 41h-26v84h26q40 0 40 44v250q0 72 36 109.5t103 37.5h52v-86h-39q-53 0 -53 -56v-237q0 -38 -15 -63.5t-47 -36.5q32 -11 47 -37t15 -63v-239z" />
    <glyph glyph-name="bar" unicode="|" horiz-adv-x="263" 
d="M88 770h87v-960h-87v960z" />
    <glyph glyph-name="braceright" unicode="}" horiz-adv-x="330" 
d="M128 191q0 37 15 63t47 37q-32 11 -47 36.5t-15 63.5v237q0 56 -53 56h-39v86h52q67 0 103 -37.5t36 -109.5v-250q0 -44 40 -44h27v-84h-27q-40 0 -40 -41v-247q0 -72 -36 -109.5t-103 -37.5h-53v86h40q53 0 53 56v239z" />
    <glyph glyph-name="asciitilde" unicode="~" horiz-adv-x="491" 
d="M398 362q9 0 14.5 3t12.5 11l48 48l55 -51l-55 -62q-13 -14 -26.5 -21.5t-37.5 -7.5h-60q-17 0 -31.5 5.5t-29.5 11.5l-87 36q-12 5 -25 10.5t-27 5.5h-42q-17 0 -24.5 -5t-17.5 -15l-47 -49l-55 51l55 61q16 17 32 27t46 10h52q21 0 38.5 -6t33.5 -13l86 -36
q11 -5 21 -9.5t21 -4.5h50v0z" />
    <glyph glyph-name="uni00A0" unicode="&#xa0;" horiz-adv-x="228" 
 />
    <glyph glyph-name="exclamdown" unicode="&#xa1;" horiz-adv-x="263" 
d="M81 503h101v-121h-101v121zM169 319l14 -207v-306h-103v306q3 49 6 91q2 36 4.5 69.5t4.5 46.5h74z" />
    <glyph glyph-name="cent" unicode="&#xa2;" horiz-adv-x="496" 
d="M296 93v-97h-87v97h-14q-67 0 -103 35t-36 104v233q0 69 36 104t103 35h14v97h87v-97h15q66 0 101.5 -35t35.5 -104v-34h-92v39q0 52 -52 52h-102q-52 0 -52 -52v-243q0 -52 52 -52h102q52 0 52 52v50h92v-45q0 -69 -35.5 -104t-101.5 -35h-15z" />
    <glyph glyph-name="sterling" unicode="&#xa3;" horiz-adv-x="596" 
d="M48 0v86h72v219h-72v71h72v186q0 68 37.5 103.5t109.5 35.5h125q72 0 109.5 -35.5t37.5 -103.5v-71h-97v68q0 56 -57 56h-109q-57 0 -57 -56v-183h149v-71h-149v-219h331v-86h-502z" />
    <glyph glyph-name="currency" unicode="&#xa4;" horiz-adv-x="624" 
d="M420 185q-23 -10 -58 -10h-103q-32 0 -57 9l-101 -103l-54 54l97 97q-9 14 -13 33t-4 42v82q0 45 16 74l-96 97l54 53l101 -102q12 5 26 7.5t31 2.5h103q33 0 58 -11l104 103l53 -53l-98 -99q16 -32 16 -72v-82q0 -42 -16 -72l98 -100l-53 -54zM363 243q25 0 37.5 14
t12.5 37v108q0 51 -50 51h-104q-50 0 -50 -51v-108q0 -51 50 -51h104z" />
    <glyph glyph-name="yen" unicode="&#xa5;" horiz-adv-x="572" 
d="M239 0v142h-180v62h180v40l-15 24h-165v61h127l-111 178q-5 8 -10.5 23.5t-5.5 39.5v127h94v-117q0 -32 12 -51l125 -198l120 192q6 10 10 22t4 30v122h90v-127q0 -25 -6 -40t-11 -23l-113 -178h130v-61h-169l-12 -19v-45h181v-62h-181v-142h-94z" />
    <glyph glyph-name="brokenbar" unicode="&#xa6;" horiz-adv-x="211" 
d="M68 387v383h75v-383h-75zM143 194v-384h-75v384h75z" />
    <glyph glyph-name="section" unicode="&#xa7;" horiz-adv-x="581" 
d="M363 97l-220 80q-15 5 -29.5 13.5t-26 22t-19 33t-7.5 47.5v269q0 67 38 103t110 36h165q71 0 108.5 -35t37.5 -104v-65h-97v72q0 49 -59 49h-147q-59 0 -59 -49v-266q0 -35 34 -48l171 -63v-95zM218 414l220 -81q15 -5 29.5 -13.5t26 -22t19 -33t7.5 -47.5v-272
q0 -67 -38 -103t-110 -36h-165q-71 0 -108.5 35t-37.5 104v65h97v-72q0 -49 59 -49h147q59 0 59 49v269q0 20 -8.5 31t-25.5 17l-171 63v96z" />
    <glyph glyph-name="dieresis" unicode="&#xa8;" horiz-adv-x="323" 
d="M61 676h73v-92h-73v92zM188 676h73v-92h-73v92z" />
    <glyph glyph-name="copyright" unicode="&#xa9;" horiz-adv-x="809" 
d="M62 514q0 91 48 139t139 48h311q91 0 139 -48t48 -139v-331q0 -91 -48 -139t-139 -48h-311q-91 0 -139 48t-48 139v331zM250 642q-120 0 -120 -120v-347q0 -120 120 -120h309q121 0 121 120v347q0 120 -121 120h-309zM358 128q-130 0 -130 130v182q0 63 33 96t97 33h95
q61 0 94 -32.5t33 -93.5v-35h-95v35q0 42 -42 42h-77q-42 0 -42 -42v-189q0 -41 42 -41h77q42 0 42 41v45h95v-44q0 -62 -33 -94.5t-94 -32.5h-95z" />
    <glyph glyph-name="ordfeminine" unicode="&#xaa;" horiz-adv-x="456" 
d="M278 270q-17 -11 -31 -17t-40 -6h-49q-50 0 -80 24t-30 75v58q0 26 8.5 44t23.5 30t36 18.5t46 9.5l148 18v63q0 44 -46 44h-76q-47 0 -47 -44v-22h-83v19q0 58 31.5 87.5t90.5 29.5h96q59 0 90 -29.5t31 -85.5v-336h-78l-4 44zM215 316q16 0 24.5 3t19.5 11l51 34v92
l-133 -16q-20 -2 -31.5 -10.5t-11.5 -29.5v-47q0 -21 9 -29t32 -8h40z" />
    <glyph glyph-name="guillemotleft" unicode="&#xab;" horiz-adv-x="526" 
d="M164 107l-96 96q-14 14 -20.5 26t-6.5 31v34q0 19 7 30t20 25l96 97h102l-140 -144q-11 -11 -11 -19v-14q0 -8 11 -19l140 -143h-102zM371 107l-96 96q-14 14 -20.5 26t-6.5 31v34q0 19 7 30t20 25l96 97h102l-140 -144q-11 -11 -11 -19v-14q0 -8 11 -19l140 -143h-102z
" />
    <glyph glyph-name="logicalnot" unicode="&#xac;" horiz-adv-x="491" 
d="M347 315h-294v72h367v-220h-73v148z" />
    <glyph glyph-name="uni00AD" unicode="&#xad;" horiz-adv-x="388" 
d="M324 327v-82h-260v82h260z" />
    <glyph glyph-name="registered" unicode="&#xae;" horiz-adv-x="571" 
d="M62 585q0 55 30.5 85.5t84.5 30.5h217q55 0 85 -30.5t30 -85.5v-229q0 -57 -30 -86t-85 -29h-217q-54 0 -84.5 29t-30.5 86v229zM186 650q-68 0 -68 -68v-223q0 -68 68 -68h199q68 0 68 68v223q0 68 -68 68h-199zM248 549v-73h64q23 0 23 22v28q0 23 -23 23h-64zM181 341
v261h135q41 0 63 -18.5t22 -55.5v-31q0 -46 -36 -62l36 -94h-74l-29 83h-50v-83h-67z" />
    <glyph glyph-name="macron" unicode="&#xaf;" horiz-adv-x="368" 
d="M59 658h252v-66h-252v66z" />
    <glyph glyph-name="degree" unicode="&#xb0;" horiz-adv-x="431" 
d="M160 379q-52 0 -79 27.5t-27 78.5v110q0 51 27 78.5t79 27.5h111q51 0 79 -27.5t28 -78.5v-110q0 -51 -28 -78.5t-79 -27.5h-111zM259 446q20 0 29.5 10.5t9.5 28.5v110q0 39 -39 39h-88q-39 0 -39 -39v-110q0 -39 39 -39h88z" />
    <glyph glyph-name="plusminus" unicode="&#xb1;" horiz-adv-x="491" 
d="M282 385v-127h-74v127h-146v73h146v127h74v-127h147v-73h-147zM429 189v-73h-367v73h367z" />
    <glyph glyph-name="uni00B2" unicode="&#xb2;" horiz-adv-x="343" 
d="M43 479v98q0 29 11.5 50.5t48.5 33.5l102 34q18 5 18 26v40q0 24 -26 24h-54q-25 0 -25 -24v-35h-73v41q0 40 21.5 62t64.5 22h79q44 0 66 -22.5t22 -64.5v-46q0 -32 -15.5 -51t-38.5 -27l-109 -37q-12 -4 -15 -10.5t-3 -17.5v-30h187v-66h-261z" />
    <glyph glyph-name="uni00B3" unicode="&#xb3;" horiz-adv-x="344" 
d="M124 477q-42 0 -64 20t-22 60v29h74v-23q0 -22 25 -22h63q26 0 26 24v54q0 22 -23 22h-77v55h69q24 0 24 23v43q0 24 -26 24h-54q-25 0 -25 -22v-22h-73v22q0 42 21.5 64.5t62.5 22.5h83q41 0 63.5 -21.5t22.5 -63.5v-34q0 -21 -8 -36t-27 -23q23 -6 32.5 -22t9.5 -37
v-58q0 -79 -86 -79h-91z" />
    <glyph glyph-name="acute" unicode="&#xb4;" horiz-adv-x="258" 
d="M200 678l-78 -113h-63l48 132h93v-19z" />
    <glyph glyph-name="mu" unicode="&#xb5;" horiz-adv-x="530" 
d="M65 503h94v-375q0 -50 50 -50h47q20 0 30 4t22 12l63 42v367h94v-503h-85l-4 49l-46 -31q-16 -10 -31.5 -16t-43.5 -6h-61q-23 0 -39 6q2 -29 3 -51.5t1 -35.5v-105h-94v693z" />
    <glyph glyph-name="paragraph" unicode="&#xb6;" horiz-adv-x="589" 
d="M234 263h-53q-72 0 -109.5 37.5t-37.5 109.5v140q0 72 37.5 109.5t109.5 37.5h317v-887h-87v801h-221q-57 0 -57 -57v-148q0 -56 57 -56h130v-540h-86v453z" />
    <glyph glyph-name="periodcentered" unicode="&#xb7;" horiz-adv-x="230" 
d="M64 356h102v-121h-102v121z" />
    <glyph glyph-name="cedilla" unicode="&#xb8;" horiz-adv-x="363" 
d="M169 -44h35q35 0 55 -14t20 -46v-29q0 -31 -19.5 -45.5t-54.5 -14.5h-120v52h112q21 0 21 18v9q0 19 -22 19h-78q-11 0 -16 3.5t-5 14.5v8q0 6 1.5 10.5t3.5 8.5l44 103h23l30 -20z" />
    <glyph glyph-name="uni00B9" unicode="&#xb9;" horiz-adv-x="314" 
d="M129 545v237h-91v66h167v-303h87v-66h-254v66h91z" />
    <glyph glyph-name="ordmasculine" unicode="&#xba;" horiz-adv-x="466" 
d="M174 247q-60 0 -91.5 31.5t-31.5 93.5v204q0 60 31.5 92.5t91.5 32.5h113q61 0 92.5 -32.5t31.5 -92.5v-204q0 -125 -124 -125h-113zM277 321q22 0 33.5 12.5t11.5 33.5v214q0 46 -45 46h-93q-46 0 -46 -46v-214q0 -46 46 -46h93z" />
    <glyph glyph-name="guillemotright" unicode="&#xbb;" horiz-adv-x="526" 
d="M53 107l141 143q6 6 8 10t2 9v14q0 9 -10 19l-141 144h102l96 -97q13 -14 20 -25t7 -30v-34q0 -19 -6.5 -31t-20.5 -26l-96 -96h-102zM260 107l141 143q6 6 8 10t2 9v14q0 5 -2 9t-8 10l-141 144h102l97 -97q13 -13 19.5 -24.5t6.5 -30.5v-34q0 -19 -6.5 -31.5
t-19.5 -25.5l-97 -96h-102z" />
    <glyph glyph-name="onequarter" unicode="&#xbc;" horiz-adv-x="742" 
d="M665 81v-81h-72v81h-174v59l179 230h67v-230h43v-59h-43zM593 272l-103 -132h103v132zM134 394v237h-91v66h167v-303h87v-66h-254v66h91zM158 -4l426 705h78l-427 -705h-77z" />
    <glyph glyph-name="onehalf" unicode="&#xbd;" horiz-adv-x="785" 
d="M485 0v98q0 29 11.5 50.5t48.5 33.5l102 34q18 5 18 26v40q0 24 -26 24h-54q-25 0 -25 -24v-35h-73v41q0 40 21.5 62t64.5 22h79q44 0 66 -22.5t22 -64.5v-46q0 -32 -15.5 -51t-38.5 -27l-109 -37q-12 -4 -15 -10.5t-3 -17.5v-30h187v-66h-261zM134 394v237h-91v66h167
v-303h87v-66h-254v66h91zM152 -4l426 705h78l-427 -705h-77z" />
    <glyph glyph-name="threequarters" unicode="&#xbe;" horiz-adv-x="728" 
d="M651 81v-81h-72v81h-174v59l179 230h67v-230h43v-59h-43zM579 272l-103 -132h103v132zM145 -4l426 705h78l-427 -705h-77zM126 326q-42 0 -64 20t-22 60v29h74v-23q0 -22 25 -22h63q26 0 26 24v54q0 22 -23 22h-77v55h69q24 0 24 23v43q0 24 -26 24h-54q-25 0 -25 -22
v-22h-73v22q0 42 21.5 64.5t62.5 22.5h83q41 0 63.5 -21.5t22.5 -63.5v-34q0 -21 -8 -36t-27 -23q23 -6 32.5 -22t9.5 -37v-58q0 -79 -86 -79h-91z" />
    <glyph glyph-name="questiondown" unicode="&#xbf;" 
d="M160 72q-7 -5 -18 -15t-11 -28v-85q0 -56 57 -56h159q57 0 57 56v71h95v-70q0 -70 -37.5 -106.5t-109.5 -36.5h-171q-72 0 -109.5 35.5t-37.5 104.5v83q0 24 6.5 41.5t17.5 31t24.5 24t27.5 19.5l95 61q15 10 23 18t8 27v72h89v-82q0 -38 -14 -56.5t-35 -32.5zM331 382
h-102v121h102v-121z" />
    <glyph glyph-name="Agrave" unicode="&#xc0;" horiz-adv-x="577" 
d="M44 0v159q0 20 4.5 37t7.5 24l181 479h104l180 -479q3 -6 7.5 -23.5t4.5 -37.5v-159h-96v148v9t-1 8h-298v-165h-94zM163 248h249l-125 350zM179 877h93l48 -132h-64l-77 113v19z" />
    <glyph glyph-name="Aacute" unicode="&#xc1;" horiz-adv-x="577" 
d="M44 0v159q0 20 4.5 37t7.5 24l181 479h104l180 -479q3 -6 7.5 -23.5t4.5 -37.5v-159h-96v148v9t-1 8h-298v-165h-94zM163 248h249l-125 350zM400 858l-77 -113h-64l48 132h93v-19z" />
    <glyph glyph-name="Acircumflex" unicode="&#xc2;" horiz-adv-x="577" 
d="M44 0v159q0 20 4.5 37t7.5 24l181 479h104l180 -479q3 -6 7.5 -23.5t4.5 -37.5v-159h-96v148v9t-1 8h-298v-165h-94zM163 248h249l-125 350zM288 819l-60 -74h-66l90 132h71l90 -132h-66z" />
    <glyph glyph-name="Atilde" unicode="&#xc3;" horiz-adv-x="577" 
d="M44 0v159q0 20 4.5 37t7.5 24l181 479h104l180 -479q3 -6 7.5 -23.5t4.5 -37.5v-159h-96v148v9t-1 8h-298v-165h-94zM163 248h249l-125 350zM372 811q22 0 22 21v36h56v-50q0 -67 -67 -67h-27q-15 0 -28 5t-23 10l-54 30q-7 3 -16 7t-19 4h-11q-22 0 -22 -21v-35h-57v49
q0 68 67 68h29q15 0 27.5 -5t22.5 -10l54 -30q7 -3 16 -7.5t19 -4.5h11z" />
    <glyph glyph-name="Adieresis" unicode="&#xc4;" horiz-adv-x="577" 
d="M44 0v159q0 20 4.5 37t7.5 24l181 479h104l180 -479q3 -6 7.5 -23.5t4.5 -37.5v-159h-96v148v9t-1 8h-298v-165h-94zM163 248h249l-125 350zM189 856h73v-92h-73v92zM315 856h73v-92h-73v92z" />
    <glyph glyph-name="Aring" unicode="&#xc5;" horiz-adv-x="577" 
d="M44 0v159q0 20 4.5 37t7.5 24l181 479h104l180 -479q3 -6 7.5 -23.5t4.5 -37.5v-159h-96v148v9t-1 8h-298v-165h-94zM163 248h249l-125 350zM304 937q42 0 64.5 -20.5t22.5 -59.5v-34q0 -40 -22.5 -60.5t-64.5 -20.5h-39q-86 0 -86 81v34q0 80 86 80h39zM266 887
q-32 0 -32 -32v-31q0 -31 32 -31h38q31 0 31 31v31q0 32 -31 32h-38z" />
    <glyph glyph-name="AE" unicode="&#xc6;" horiz-adv-x="879" 
d="M29 0v160q0 20 4.5 38.5t15.5 33.5l319 465h461v-85h-329v-210h305v-83h-305v-234h337v-85h-436v165h-279v-165h-93zM165 248h236v352z" />
    <glyph glyph-name="Ccedilla" unicode="&#xc7;" horiz-adv-x="580" 
d="M531 232v-89q0 -72 -37.5 -109.5t-109.5 -37.5h-67l-15 -40h35q35 0 55 -14t20 -46v-29q0 -31 -19.5 -45.5t-54.5 -14.5h-120v52h112q21 0 21 18v9q0 19 -22 19h-78q-11 0 -16 3.5t-5 14.5v8q0 6 1.5 10.5t3.5 8.5l19 46h-38q-72 0 -109.5 37.5t-37.5 109.5v411
q0 72 37.5 109.5t109.5 37.5h168q72 0 109.5 -37.5t37.5 -109.5v-65h-97v70q0 56 -57 56h-153q-56 0 -56 -56v-421q0 -56 56 -56h153q57 0 57 56v94h97z" />
    <glyph glyph-name="Egrave" unicode="&#xc8;" horiz-adv-x="558" 
d="M192 877h93l48 -132h-64l-77 113v19zM79 697h429v-85h-330v-210h305v-83h-305v-234h338v-85h-437v697z" />
    <glyph glyph-name="Eacute" unicode="&#xc9;" horiz-adv-x="558" 
d="M79 697h429v-85h-330v-210h305v-83h-305v-234h338v-85h-437v697zM394 858l-77 -113h-64l48 132h93v-19z" />
    <glyph glyph-name="Ecircumflex" unicode="&#xca;" horiz-adv-x="558" 
d="M296 819l-60 -74h-66l90 132h71l90 -132h-66zM79 697h429v-85h-330v-210h305v-83h-305v-234h338v-85h-437v697z" />
    <glyph glyph-name="Edieresis" unicode="&#xcb;" horiz-adv-x="558" 
d="M79 697h429v-85h-330v-210h305v-83h-305v-234h338v-85h-437v697zM192 856h73v-92h-73v92zM318 856h73v-92h-73v92z" />
    <glyph glyph-name="Igrave" unicode="&#xcc;" horiz-adv-x="258" 
d="M79 697h99v-697h-99v697zM21 877h93l48 -132h-64l-77 113v19z" />
    <glyph glyph-name="Iacute" unicode="&#xcd;" horiz-adv-x="258" 
d="M79 697h99v-697h-99v697zM235 858l-77 -113h-64l48 132h93v-19z" />
    <glyph glyph-name="Icircumflex" unicode="&#xce;" horiz-adv-x="258" 
d="M79 697h99v-697h-99v697zM129 819l-60 -74h-66l90 132h71l90 -132h-66z" />
    <glyph glyph-name="Idieresis" unicode="&#xcf;" horiz-adv-x="258" 
d="M79 697h99v-697h-99v697zM30 856h73v-92h-73v92zM156 856h73v-92h-73v92z" />
    <glyph glyph-name="Eth" unicode="&#xd0;" horiz-adv-x="625" 
d="M82 0v321h-61v81h61v295h316q78 0 118.5 -40.5t40.5 -118.5v-379q0 -78 -40.5 -118.5t-118.5 -40.5h-316zM396 87q62 0 62 62v399q0 62 -62 62h-215v-208h117v-81h-117v-234h215z" />
    <glyph glyph-name="Ntilde" unicode="&#xd1;" horiz-adv-x="634" 
d="M400 811q22 0 22 21v36h56v-50q0 -67 -67 -67h-27q-15 0 -28 5t-23 10l-54 30q-7 3 -16 7t-19 4h-11q-22 0 -22 -21v-35h-57v49q0 68 67 68h29q15 0 27.5 -5t22.5 -10l54 -30q7 -3 16 -7.5t19 -4.5h11zM171 515v-515h-92v697h93l291 -515v515h91v-697h-90z" />
    <glyph glyph-name="Ograve" unicode="&#xd2;" horiz-adv-x="612" 
d="M199 877h93l48 -132h-64l-77 113v19zM216 -4q-72 0 -109.5 37.5t-37.5 109.5v411q0 72 37.5 109.5t109.5 37.5h181q72 0 109.5 -37.5t37.5 -109.5v-411q0 -72 -37.5 -109.5t-109.5 -37.5h-181zM168 141q0 -59 56 -59h164q57 0 57 56v421q0 56 -57 56h-164q-56 0 -56 -56
v-418z" />
    <glyph glyph-name="Oacute" unicode="&#xd3;" horiz-adv-x="612" 
d="M411 858l-77 -113h-64l48 132h93v-19zM216 -4q-72 0 -109.5 37.5t-37.5 109.5v411q0 72 37.5 109.5t109.5 37.5h181q72 0 109.5 -37.5t37.5 -109.5v-411q0 -72 -37.5 -109.5t-109.5 -37.5h-181zM168 141q0 -59 56 -59h164q57 0 57 56v421q0 56 -57 56h-164q-56 0 -56 -56
v-418z" />
    <glyph glyph-name="Ocircumflex" unicode="&#xd4;" horiz-adv-x="612" 
d="M308 819l-60 -74h-66l90 132h71l90 -132h-66zM216 -4q-72 0 -109.5 37.5t-37.5 109.5v411q0 72 37.5 109.5t109.5 37.5h181q72 0 109.5 -37.5t37.5 -109.5v-411q0 -72 -37.5 -109.5t-109.5 -37.5h-181zM168 141q0 -59 56 -59h164q57 0 57 56v421q0 56 -57 56h-164
q-56 0 -56 -56v-418z" />
    <glyph glyph-name="Otilde" unicode="&#xd5;" horiz-adv-x="612" 
d="M216 -4q-72 0 -109.5 37.5t-37.5 109.5v411q0 72 37.5 109.5t109.5 37.5h181q72 0 109.5 -37.5t37.5 -109.5v-411q0 -72 -37.5 -109.5t-109.5 -37.5h-181zM168 141q0 -59 56 -59h164q57 0 57 56v421q0 56 -57 56h-164q-56 0 -56 -56v-418zM391 811q22 0 22 21v36h56v-50
q0 -67 -67 -67h-27q-15 0 -28 5t-23 10l-54 30q-7 3 -16 7t-19 4h-11q-22 0 -22 -21v-35h-57v49q0 68 67 68h29q15 0 27.5 -5t22.5 -10l54 -30q7 -3 16 -7.5t19 -4.5h11z" />
    <glyph glyph-name="Odieresis" unicode="&#xd6;" horiz-adv-x="612" 
d="M216 -4q-72 0 -109.5 37.5t-37.5 109.5v411q0 72 37.5 109.5t109.5 37.5h181q72 0 109.5 -37.5t37.5 -109.5v-411q0 -72 -37.5 -109.5t-109.5 -37.5h-181zM168 141q0 -59 56 -59h164q57 0 57 56v421q0 56 -57 56h-164q-56 0 -56 -56v-418zM208 856h73v-92h-73v92z
M334 856h73v-92h-73v92z" />
    <glyph glyph-name="multiply" unicode="&#xd7;" horiz-adv-x="491" 
d="M247 297l-113 -111l-51 51l112 113l-112 112l51 52l112 -113l111 110l51 -52l-110 -110l109 -109l-50 -52z" />
    <glyph glyph-name="Oslash" unicode="&#xd8;" horiz-adv-x="606" 
d="M64 -24l35 64q-32 37 -32 103v411q0 72 37.5 109.5t109.5 37.5h178q34 0 61 -9l16 29h74l-36 -65q32 -38 32 -102v-411q0 -72 -37.5 -109.5t-109.5 -37.5h-178q-34 0 -61 9l-16 -29h-73zM386 77q30 0 45 15.5t15 44.5v406l-252 -462q11 -4 27 -4h165zM161 154l251 462
q-11 4 -26 4h-165q-60 0 -60 -60v-406z" />
    <glyph glyph-name="Ugrave" unicode="&#xd9;" horiz-adv-x="626" 
d="M207 877h93l48 -132h-64l-77 113v19zM551 697v-554q0 -72 -37.5 -109.5t-109.5 -37.5h-181q-72 0 -109.5 37.5t-37.5 109.5v554h99v-557q0 -57 56 -57h164q57 0 57 57v557h99z" />
    <glyph glyph-name="Uacute" unicode="&#xda;" horiz-adv-x="626" 
d="M551 697v-554q0 -72 -37.5 -109.5t-109.5 -37.5h-181q-72 0 -109.5 37.5t-37.5 109.5v554h99v-557q0 -57 56 -57h164q57 0 57 57v557h99zM415 858l-77 -113h-64l48 132h93v-19z" />
    <glyph glyph-name="Ucircumflex" unicode="&#xdb;" horiz-adv-x="626" 
d="M313 819l-60 -74h-66l90 132h71l90 -132h-66zM551 697v-554q0 -72 -37.5 -109.5t-109.5 -37.5h-181q-72 0 -109.5 37.5t-37.5 109.5v554h99v-557q0 -57 56 -57h164q57 0 57 57v557h99z" />
    <glyph glyph-name="Udieresis" unicode="&#xdc;" horiz-adv-x="626" 
d="M551 697v-554q0 -72 -37.5 -109.5t-109.5 -37.5h-181q-72 0 -109.5 37.5t-37.5 109.5v554h99v-557q0 -57 56 -57h164q57 0 57 57v557h99zM213 856h73v-92h-73v92zM339 856h73v-92h-73v92z" />
    <glyph glyph-name="Yacute" unicode="&#xdd;" horiz-adv-x="552" 
d="M227 0v244l-173 262q-5 7 -10.5 23t-5.5 40v128h98v-117q0 -32 13 -51l130 -197l127 191q7 10 10.5 22t3.5 29v123h95v-128q0 -25 -6 -40.5t-11 -22.5l-172 -258v-248h-99zM384 858l-77 -113h-64l48 132h93v-19z" />
    <glyph glyph-name="Thorn" unicode="&#xde;" horiz-adv-x="582" 
d="M178 109v-109h-99v697h99v-154h209q72 0 109.5 -37.5t37.5 -109.5v-140q0 -72 -37.5 -109.5t-109.5 -37.5h-209zM178 457v-261h201q56 0 56 56v148q0 57 -56 57h-201z" />
    <glyph glyph-name="germandbls" unicode="&#xdf;" horiz-adv-x="570" 
d="M193 0h-94v418h-75v82h75v57q0 68 35 104t104 36h117q73 0 110 -35.5t37 -102.5v-91q0 -84 -68 -107q41 -8 62.5 -36t21.5 -75v-107q0 -69 -37.5 -106t-109.5 -37h-95v82h91q56 0 56 53v134q0 49 -52 49h-84v81h69q52 0 52 49v114q0 53 -56 53h-107q-52 0 -52 -52v-563z
" />
    <glyph glyph-name="agrave" unicode="&#xe0;" horiz-adv-x="502" 
d="M309 22q-18 -12 -34 -19t-45 -7h-59q-57 0 -90.5 27.5t-33.5 84.5v62q0 59 35.5 84.5t90.5 31.5l174 20v74q0 50 -52 50h-95q-52 0 -52 -50v-32h-91v28q0 65 35.5 98t101.5 33h114q64 0 98 -33t34 -96v-378h-84l-5 50zM238 73q18 0 28 4t22 12l59 38v104l-159 -19
q-24 -3 -36.5 -12t-12.5 -34v-51q0 -23 10.5 -32.5t35.5 -9.5h53zM140 697h93l48 -132h-64l-77 113v19z" />
    <glyph glyph-name="aacute" unicode="&#xe1;" horiz-adv-x="502" 
d="M309 22q-18 -12 -34 -19t-45 -7h-59q-57 0 -90.5 27.5t-33.5 84.5v62q0 59 35.5 84.5t90.5 31.5l174 20v74q0 50 -52 50h-95q-52 0 -52 -50v-32h-91v28q0 65 35.5 98t101.5 33h114q64 0 98 -33t34 -96v-378h-84l-5 50zM238 73q18 0 28 4t22 12l59 38v104l-159 -19
q-24 -3 -36.5 -12t-12.5 -34v-51q0 -23 10.5 -32.5t35.5 -9.5h53zM348 678l-78 -113h-63l48 132h93v-19z" />
    <glyph glyph-name="acircumflex" unicode="&#xe2;" horiz-adv-x="502" 
d="M309 22q-18 -12 -34 -19t-45 -7h-59q-57 0 -90.5 27.5t-33.5 84.5v62q0 59 35.5 84.5t90.5 31.5l174 20v74q0 50 -52 50h-95q-52 0 -52 -50v-32h-91v28q0 65 35.5 98t101.5 33h114q64 0 98 -33t34 -96v-378h-84l-5 50zM238 73q18 0 28 4t22 12l59 38v104l-159 -19
q-24 -3 -36.5 -12t-12.5 -34v-51q0 -23 10.5 -32.5t35.5 -9.5h53zM243 639l-60 -74h-65l90 132h71l90 -132h-66z" />
    <glyph glyph-name="atilde" unicode="&#xe3;" horiz-adv-x="502" 
d="M309 22q-18 -12 -34 -19t-45 -7h-59q-57 0 -90.5 27.5t-33.5 84.5v62q0 59 35.5 84.5t90.5 31.5l174 20v74q0 50 -52 50h-95q-52 0 -52 -50v-32h-91v28q0 65 35.5 98t101.5 33h114q64 0 98 -33t34 -96v-378h-84l-5 50zM238 73q18 0 28 4t22 12l59 38v104l-159 -19
q-24 -3 -36.5 -12t-12.5 -34v-51q0 -23 10.5 -32.5t35.5 -9.5h53zM327 640q22 0 22 20v37h56v-50q0 -32 -17 -50t-50 -18h-26q-16 0 -29 5t-23 11l-54 30q-7 3 -16 7t-18 4h-12q-22 0 -22 -21v-36h-57v50q0 68 68 68h29q14 0 26.5 -5t23.5 -10l53 -30q7 -4 16 -8t19 -4h11z
" />
    <glyph glyph-name="adieresis" unicode="&#xe4;" horiz-adv-x="502" 
d="M309 22q-18 -12 -34 -19t-45 -7h-59q-57 0 -90.5 27.5t-33.5 84.5v62q0 59 35.5 84.5t90.5 31.5l174 20v74q0 50 -52 50h-95q-52 0 -52 -50v-32h-91v28q0 65 35.5 98t101.5 33h114q64 0 98 -33t34 -96v-378h-84l-5 50zM238 73q18 0 28 4t22 12l59 38v104l-159 -19
q-24 -3 -36.5 -12t-12.5 -34v-51q0 -23 10.5 -32.5t35.5 -9.5h53zM145 676h73v-92h-73v92zM272 676h73v-92h-73v92z" />
    <glyph glyph-name="aring" unicode="&#xe5;" horiz-adv-x="502" 
d="M309 22q-18 -12 -34 -19t-45 -7h-59q-57 0 -90.5 27.5t-33.5 84.5v62q0 59 35.5 84.5t90.5 31.5l174 20v74q0 50 -52 50h-95q-52 0 -52 -50v-32h-91v28q0 65 35.5 98t101.5 33h114q64 0 98 -33t34 -96v-378h-84l-5 50zM238 73q18 0 28 4t22 12l59 38v104l-159 -19
q-24 -3 -36.5 -12t-12.5 -34v-51q0 -23 10.5 -32.5t35.5 -9.5h53zM266 744q42 0 64.5 -20.5t22.5 -59.5v-34q0 -40 -22.5 -60.5t-64.5 -20.5h-39q-86 0 -86 81v34q0 80 86 80h39zM228 694q-32 0 -32 -32v-31q0 -31 32 -31h38q31 0 31 31v31q0 32 -31 32h-38z" />
    <glyph glyph-name="ae" unicode="&#xe6;" horiz-adv-x="791" 
d="M485 -4q-91 0 -122 61l-54 -35q-18 -12 -34 -19t-45 -7h-59q-57 0 -90.5 27.5t-33.5 84.5v59q0 59 36 84.5t92 31.5l171 18v81q0 49 -52 49h-94q-52 0 -52 -49v-34h-91v28q0 65 35.5 98t101.5 33h110q58 0 86 -34q36 34 99 34h113q66 0 101.5 -35.5t35.5 -104.5v-137
h-300v-107q0 -52 53 -52h103q52 0 52 52v35h92v-26q0 -67 -35.5 -101.5t-101.5 -34.5h-117zM238 72q18 0 28 4t22 12l58 38v101l-158 -16q-24 -3 -36.5 -12.5t-12.5 -33.5v-51q0 -23 10.5 -32.5t35.5 -9.5h53zM439 301h210v79q0 52 -53 52h-104q-53 0 -53 -52v-79z" />
    <glyph glyph-name="ccedilla" unicode="&#xe7;" horiz-adv-x="491" 
d="M195 -4q-68 0 -103.5 35.5t-35.5 104.5v231q0 69 35.5 104.5t103.5 35.5h113q66 0 101.5 -35.5t35.5 -104.5v-33h-92v39q0 52 -52 52h-99q-52 0 -52 -52v-243q0 -52 52 -52h99q52 0 52 52v50h92v-44q0 -69 -35.5 -104.5t-101.5 -35.5h-43l-15 -40h35q35 0 55 -14t20 -46
v-29q0 -31 -19.5 -45.5t-54.5 -14.5h-120v52h112q21 0 21 18v9q0 19 -22 19h-78q-11 0 -16 3.5t-5 14.5v8q0 6 1.5 10.5t3.5 8.5l19 46h-7v0z" />
    <glyph glyph-name="egrave" unicode="&#xe8;" horiz-adv-x="501" 
d="M449 132q0 -67 -35.5 -101.5t-102.5 -34.5h-116q-68 0 -103.5 35.5t-35.5 104.5v231q0 69 35.5 104.5t103.5 35.5h116q67 0 102.5 -35.5t35.5 -104.5v-141h-300v-102q0 -52 52 -52h104q52 0 52 52v34h92v-26zM149 301h209v78q0 52 -52 52h-105q-52 0 -52 -52v-78z
M148 697h93l48 -132h-64l-77 113v19z" />
    <glyph glyph-name="eacute" unicode="&#xe9;" horiz-adv-x="501" 
d="M357 678l-78 -113h-63l48 132h93v-19zM449 132q0 -67 -35.5 -101.5t-102.5 -34.5h-116q-68 0 -103.5 35.5t-35.5 104.5v231q0 69 35.5 104.5t103.5 35.5h116q67 0 102.5 -35.5t35.5 -104.5v-141h-300v-102q0 -52 52 -52h104q52 0 52 52v34h92v-26zM149 301h209v78
q0 52 -52 52h-105q-52 0 -52 -52v-78z" />
    <glyph glyph-name="ecircumflex" unicode="&#xea;" horiz-adv-x="501" 
d="M252 639l-60 -74h-65l90 132h71l90 -132h-66zM449 132q0 -67 -35.5 -101.5t-102.5 -34.5h-116q-68 0 -103.5 35.5t-35.5 104.5v231q0 69 35.5 104.5t103.5 35.5h116q67 0 102.5 -35.5t35.5 -104.5v-141h-300v-102q0 -52 52 -52h104q52 0 52 52v34h92v-26zM149 301h209v78
q0 52 -52 52h-105q-52 0 -52 -52v-78z" />
    <glyph glyph-name="edieresis" unicode="&#xeb;" horiz-adv-x="501" 
d="M152 676h73v-92h-73v92zM279 676h73v-92h-73v92zM449 132q0 -67 -35.5 -101.5t-102.5 -34.5h-116q-68 0 -103.5 35.5t-35.5 104.5v231q0 69 35.5 104.5t103.5 35.5h116q67 0 102.5 -35.5t35.5 -104.5v-141h-300v-102q0 -52 52 -52h104q52 0 52 52v34h92v-26zM149 301h209
v78q0 52 -52 52h-105q-52 0 -52 -52v-78z" />
    <glyph glyph-name="igrave" unicode="&#xec;" horiz-adv-x="225" 
d="M66 503h94v-503h-94v503zM7 697h93l48 -132h-64l-77 113v19z" />
    <glyph glyph-name="iacute" unicode="&#xed;" horiz-adv-x="225" 
d="M220 678l-78 -113h-63l48 132h93v-19zM65 503h94v-503h-94v503z" />
    <glyph glyph-name="icircumflex" unicode="&#xee;" horiz-adv-x="226" 
d="M114 639l-60 -74h-65l90 132h71l90 -132h-66zM66 503h94v-503h-94v503z" />
    <glyph glyph-name="idieresis" unicode="&#xef;" horiz-adv-x="226" 
d="M14 676h73v-92h-73v92zM141 676h73v-92h-73v92zM66 503h94v-503h-94v503z" />
    <glyph glyph-name="eth" unicode="&#xf0;" horiz-adv-x="525" 
d="M196 -4q-68 0 -103.5 35.5t-35.5 104.5v246q0 61 32.5 93t92.5 32h68q28 0 44.5 -5.5t32.5 -16.5l41 -27v24q0 28 -6.5 42.5t-21.5 35.5l-20 28l-85 -28v52l55 19l-48 66h105l29 -39l86 29v-53l-56 -19l17 -22q24 -32 31.5 -60.5t7.5 -71.5v-325q0 -69 -35.5 -104.5
t-102.5 -35.5h-128zM316 76q26 0 39 14.5t13 37.5v240l-63 41q-12 8 -21.5 12t-29.5 4h-53q-50 0 -50 -50v-247q0 -52 52 -52h113z" />
    <glyph glyph-name="ntilde" unicode="&#xf1;" horiz-adv-x="533" 
d="M274 425q-20 0 -30 -4t-22 -12l-63 -42v-367h-94v503h85l4 -49l47 31q16 10 31 16t43 6h70q61 0 93 -32t32 -93v-382h-94v375q0 50 -49 50h-53zM350 640q22 0 22 20v37h56v-50q0 -32 -17 -50t-50 -18h-26q-16 0 -29 5t-23 11l-54 30q-7 3 -16 7t-18 4h-12q-22 0 -22 -21
v-36h-57v50q0 68 68 68h29q14 0 26.5 -5t23.5 -10l53 -30q7 -4 16 -8t19 -4h11z" />
    <glyph glyph-name="ograve" unicode="&#xf2;" horiz-adv-x="517" 
d="M195 -4q-68 0 -103.5 35.5t-35.5 104.5v231q0 69 35.5 104.5t103.5 35.5h127q67 0 103 -35.5t36 -104.5v-231q0 -69 -36 -104.5t-103 -35.5h-127zM315 76q26 0 39 14.5t13 37.5v247q0 52 -52 52h-113q-52 0 -52 -52v-247q0 -52 52 -52h113zM154 697h93l48 -132h-64
l-77 113v19z" />
    <glyph glyph-name="oacute" unicode="&#xf3;" horiz-adv-x="517" 
d="M365 678l-78 -113h-63l48 132h93v-19zM195 -4q-68 0 -103.5 35.5t-35.5 104.5v231q0 69 35.5 104.5t103.5 35.5h127q67 0 103 -35.5t36 -104.5v-231q0 -69 -36 -104.5t-103 -35.5h-127zM315 76q26 0 39 14.5t13 37.5v247q0 52 -52 52h-113q-52 0 -52 -52v-247
q0 -52 52 -52h113z" />
    <glyph glyph-name="ocircumflex" unicode="&#xf4;" horiz-adv-x="517" 
d="M259 639l-60 -74h-65l90 132h71l90 -132h-66zM195 -4q-68 0 -103.5 35.5t-35.5 104.5v231q0 69 35.5 104.5t103.5 35.5h127q67 0 103 -35.5t36 -104.5v-231q0 -69 -36 -104.5t-103 -35.5h-127zM315 76q26 0 39 14.5t13 37.5v247q0 52 -52 52h-113q-52 0 -52 -52v-247
q0 -52 52 -52h113z" />
    <glyph glyph-name="otilde" unicode="&#xf5;" horiz-adv-x="517" 
d="M195 -4q-68 0 -103.5 35.5t-35.5 104.5v231q0 69 35.5 104.5t103.5 35.5h127q67 0 103 -35.5t36 -104.5v-231q0 -69 -36 -104.5t-103 -35.5h-127zM315 76q26 0 39 14.5t13 37.5v247q0 52 -52 52h-113q-52 0 -52 -52v-247q0 -52 52 -52h113zM343 640q22 0 22 20v37h56v-50
q0 -32 -17 -50t-50 -18h-26q-16 0 -29 5t-23 11l-54 30q-7 3 -16 7t-18 4h-12q-22 0 -22 -21v-36h-57v50q0 68 68 68h29q14 0 26.5 -5t23.5 -10l53 -30q7 -4 16 -8t19 -4h11z" />
    <glyph glyph-name="odieresis" unicode="&#xf6;" horiz-adv-x="517" 
d="M160 676h73v-92h-73v92zM287 676h73v-92h-73v92zM195 -4q-68 0 -103.5 35.5t-35.5 104.5v231q0 69 35.5 104.5t103.5 35.5h127q67 0 103 -35.5t36 -104.5v-231q0 -69 -36 -104.5t-103 -35.5h-127zM315 76q26 0 39 14.5t13 37.5v247q0 52 -52 52h-113q-52 0 -52 -52v-247
q0 -52 52 -52h113z" />
    <glyph glyph-name="divide" unicode="&#xf7;" horiz-adv-x="491" 
d="M429 388v-79h-367v79h367zM204 220h82v-100h-82v100zM204 577h82v-100h-82v100z" />
    <glyph glyph-name="oslash" unicode="&#xf8;" horiz-adv-x="512" 
d="M53 -24l36 57q-34 35 -34 103v231q0 69 36 104.5t103 35.5h124q33 0 60 -9l18 29h64l-37 -58q34 -37 34 -102v-231q0 -69 -35.5 -104.5t-103.5 -35.5h-124q-35 0 -60 9l-18 -29h-63zM314 72q26 0 40 15t14 39v254l-191 -305q10 -3 22 -3h115zM334 428q-9 3 -20 3h-115
q-54 0 -54 -55v-253z" />
    <glyph glyph-name="ugrave" unicode="&#xf9;" 
d="M328 18q-16 -11 -31.5 -16.5t-43.5 -5.5h-65q-60 0 -92.5 32t-32.5 93v382h94v-375q0 -50 50 -50h47q20 0 30 4t22 12l63 41v368h94v-503h-85l-5 49zM161 697h93l48 -132h-64l-77 113v19z" />
    <glyph glyph-name="uacute" unicode="&#xfa;" 
d="M369 678l-78 -113h-63l48 132h93v-19zM328 18q-16 -11 -31.5 -16.5t-43.5 -5.5h-65q-60 0 -92.5 32t-32.5 93v382h94v-375q0 -50 50 -50h47q20 0 30 4t22 12l63 41v368h94v-503h-85l-5 49z" />
    <glyph glyph-name="ucircumflex" unicode="&#xfb;" 
d="M265 639l-60 -74h-65l90 132h71l90 -132h-66zM328 18q-16 -11 -31.5 -16.5t-43.5 -5.5h-65q-60 0 -92.5 32t-32.5 93v382h94v-375q0 -50 50 -50h47q20 0 30 4t22 12l63 41v368h94v-503h-85l-5 49z" />
    <glyph glyph-name="udieresis" unicode="&#xfc;" 
d="M165 676h73v-92h-73v92zM292 676h73v-92h-73v92zM328 18q-16 -11 -31.5 -16.5t-43.5 -5.5h-65q-60 0 -92.5 32t-32.5 93v382h94v-375q0 -50 50 -50h47q20 0 30 4t22 12l63 41v368h94v-503h-85l-5 49z" />
    <glyph glyph-name="yacute" unicode="&#xfd;" horiz-adv-x="490" 
d="M72 -190v81h61q18 0 28.5 8.5t18.5 28.5l25 59l-151 326q-3 6 -8 21.5t-5 34.5v134h94v-123q0 -17 2.5 -27t6.5 -19l105 -237l98 237q4 9 6.5 19t2.5 27v123h91v-134q0 -17 -5.5 -33.5l-7.5 -22.5l-166 -396q-11 -26 -21.5 -46t-24 -33.5t-31 -20.5t-41.5 -7h-78z
M353 678l-78 -113h-63l48 132h93v-19z" />
    <glyph glyph-name="thorn" unicode="&#xfe;" 
d="M159 45v-239h-94v891h94v-239l42 27q16 10 31 16t43 6h70q61 0 93 -32.5t32 -92.5v-261q0 -60 -32 -92.5t-93 -32.5h-70q-28 0 -43 6t-31 16zM326 78q50 0 50 50v247q0 50 -50 50h-52q-20 0 -29.5 -4t-22.5 -12l-63 -41v-233l63 -41q13 -8 22.5 -12t29.5 -4h52z" />
    <glyph glyph-name="ydieresis" unicode="&#xff;" horiz-adv-x="490" 
d="M72 -190v81h61q18 0 28.5 8.5t18.5 28.5l25 59l-151 326q-3 6 -8 21.5t-5 34.5v134h94v-123q0 -17 2.5 -27t6.5 -19l105 -237l98 237q4 9 6.5 19t2.5 27v123h91v-134q0 -17 -5.5 -33.5l-7.5 -22.5l-166 -396q-11 -26 -21.5 -46t-24 -33.5t-31 -20.5t-41.5 -7h-78z
M141 676h73v-92h-73v92zM268 676h73v-92h-73v92z" />
    <glyph glyph-name="dotlessi" unicode="&#x131;" horiz-adv-x="224" 
d="M65 503h94v-503h-94v503z" />
    <glyph glyph-name="OE" unicode="&#x152;" horiz-adv-x="923" 
d="M445 1q-25 -5 -48 -5h-181q-72 0 -109.5 37.5t-37.5 109.5v411q0 72 37.5 109.5t109.5 37.5h181q25 0 48 -6v2h427v-85h-328v-210h305v-83h-305v-234h337v-85h-436v1zM168 141q0 -59 56 -59h164q54 0 57 50v427q0 56 -57 56h-164q-56 0 -56 -56v-418z" />
    <glyph glyph-name="oe" unicode="&#x153;" horiz-adv-x="813" 
d="M760 132q0 -67 -35.5 -101.5t-101.5 -34.5h-114q-66 0 -98 41q-32 -41 -95 -41h-121q-68 0 -103.5 35.5t-35.5 104.5v231q0 69 35.5 104.5t103.5 35.5h121q63 0 95 -42q31 42 98 42h114q66 0 101.5 -35.5t35.5 -104.5v-141h-299v-102q0 -52 52 -52h103q53 0 53 52v34h91
v-26zM315 76q26 0 39 14.5t13 37.5v247q0 52 -52 52h-113q-52 0 -52 -52v-247q0 -52 52 -52h113zM461 300h209v79q0 52 -52 52h-105q-52 0 -52 -52v-79z" />
    <glyph glyph-name="Scaron" unicode="&#x160;" horiz-adv-x="581" 
d="M163 890h65l60 -74l60 74h66l-90 -132h-71zM60 566q0 66 37.5 100.5t109.5 34.5h166q70 0 107.5 -34.5t37.5 -100.5v-73h-97v76q0 49 -58 49h-148q-58 0 -58 -49v-89q0 -21 6.5 -32t29.5 -17l235 -62q48 -13 72.5 -42.5t24.5 -73.5v-122q0 -66 -38 -100.5t-110 -34.5
h-178q-71 0 -108 34.5t-37 100.5v67h97v-70q0 -49 58 -49h160q31 0 44.5 13.5t13.5 35.5v110q0 20 -8.5 30t-27.5 15l-240 63q-18 5 -34.5 13.5t-29 23t-20 35.5t-7.5 51v97z" />
    <glyph glyph-name="scaron" unicode="&#x161;" horiz-adv-x="489" 
d="M116 697h65l60 -74l60 74h66l-90 -132h-71zM139 159v-44q0 -45 52 -45h106q52 0 52 43v50q0 26 -28 33l-193 47q-14 3 -27 9.5t-24 17.5t-17.5 27t-6.5 39v51q0 60 36 90t103 30h105q66 0 101.5 -32t35.5 -94v-28h-91v35q0 45 -52 45h-94q-27 0 -39.5 -11t-12.5 -30v-46
q0 -15 6.5 -21t20.5 -10l189 -46q42 -10 61 -34t19 -56v-63q0 -120 -140 -120h-116q-66 0 -102 32t-36 94v37h92z" />
    <glyph glyph-name="Ydieresis" unicode="&#x178;" horiz-adv-x="552" 
d="M227 0v244l-173 262q-5 7 -10.5 23t-5.5 40v128h98v-117q0 -32 13 -51l130 -197l127 191q7 10 10.5 22t3.5 29v123h95v-128q0 -25 -6 -40.5t-11 -22.5l-172 -258v-248h-99zM176 856h73v-92h-73v92zM302 856h73v-92h-73v92z" />
    <glyph glyph-name="Zcaron" unicode="&#x17d;" horiz-adv-x="536" 
d="M141 890h65l60 -74l60 74h66l-90 -132h-71zM29 0v85l353 527h-335v85h448v-86l-354 -526h364v-85h-476z" />
    <glyph glyph-name="zcaron" unicode="&#x17e;" horiz-adv-x="467" 
d="M107 697h65l60 -74l60 74h66l-90 -132h-71zM431 79v-79h-395v71l271 353h-262v79h378v-71l-271 -353h279z" />
    <glyph glyph-name="florin" unicode="&#x192;" horiz-adv-x="458" 
d="M174 -50q-14 -74 -53 -107t-112 -33h-68l15 82h61q28 0 42.5 13t19.5 39l73 379h-101l15 82h100l30 152q14 74 53 107t113 33h84l-14 -82h-79q-28 0 -42 -13t-19 -39l-31 -158h133l-14 -82h-134l-72 -373v0z" />
    <glyph glyph-name="uni0237" unicode="&#x237;" horiz-adv-x="224" 
d="M-48 -108h62q51 0 51 52v559h94v-553q0 -68 -35.5 -104t-103.5 -36h-68v82z" />
    <glyph glyph-name="circumflex" unicode="&#x2c6;" horiz-adv-x="371" 
d="M185 639l-60 -74h-65l90 132h71l90 -132h-66z" />
    <glyph glyph-name="tilde" unicode="&#x2dc;" horiz-adv-x="429" 
d="M298 640q22 0 22 20v37h56v-50q0 -32 -17 -50t-50 -18h-26q-16 0 -29 5t-23 11l-54 30q-7 3 -16 7t-18 4h-12q-22 0 -22 -21v-36h-57v50q0 68 68 68h29q14 0 26.5 -5t23.5 -10l53 -30q7 -4 16 -8t19 -4h11v0z" />
    <glyph glyph-name="endash" unicode="&#x2013;" horiz-adv-x="481" 
d="M416 326v-79h-351v79h351z" />
    <glyph glyph-name="emdash" unicode="&#x2014;" horiz-adv-x="832" 
d="M767 326v-78h-702v78h702z" />
    <glyph glyph-name="quoteleft" unicode="&#x2018;" horiz-adv-x="224" 
d="M47 518l73 180h58l-34 -211h-97v31z" />
    <glyph glyph-name="quoteright" unicode="&#x2019;" horiz-adv-x="220" 
d="M182 666l-73 -180h-58l34 211h97v-31z" />
    <glyph glyph-name="quotesinglbase" unicode="&#x201a;" horiz-adv-x="227" 
d="M169 92l-73 -180h-58l34 211h97v-31z" />
    <glyph glyph-name="quotedblleft" unicode="&#x201c;" horiz-adv-x="379" 
d="M47 518l73 180h58l-34 -211h-97v31zM201 518l73 180h58l-34 -211h-97v31z" />
    <glyph glyph-name="quotedblright" unicode="&#x201d;" horiz-adv-x="375" 
d="M183 666l-74 -179h-58l35 211h97v-32zM337 666l-74 -179h-58l35 211h97v-32z" />
    <glyph glyph-name="quotedblbase" unicode="&#x201e;" horiz-adv-x="381" 
d="M169 91l-74 -179h-58l35 211h97v-32zM324 91l-74 -179h-58l35 211h97v-32z" />
    <glyph glyph-name="dagger" unicode="&#x2020;" horiz-adv-x="422" 
d="M248 0h-74l-15 316v59l10 88h-141v73h140l-9 104v57h104v-57l-8 -104h140v-73h-142l10 -88v-59z" />
    <glyph glyph-name="daggerdbl" unicode="&#x2021;" horiz-adv-x="465" 
d="M284 0h-103v57l8 104h-140v73h142l-10 105v29l10 95h-142v73h140l-8 104v57h103v-57l-8 -104h140v-73h-142l10 -95v-29l-10 -105h142v-73h-140l8 -104v-57z" />
    <glyph glyph-name="bullet" unicode="&#x2022;" horiz-adv-x="323" 
d="M85 354h152v-180h-152v180z" />
    <glyph glyph-name="ellipsis" unicode="&#x2026;" horiz-adv-x="655" 
d="M63 121h102v-121h-102v121zM491 121h101v-121h-101v121zM277 121h102v-121h-102v121z" />
    <glyph glyph-name="perthousand" unicode="&#x2030;" horiz-adv-x="1094" 
d="M460 285q0 42 23 64.5t65 22.5h88q43 0 65 -22.5t22 -64.5v-200q0 -87 -87 -87h-88q-42 0 -65 22t-23 65v200zM537 87q0 -24 25 -24h61q25 0 25 24v195q0 24 -25 24h-61q-25 0 -25 -24v-195zM44 613q0 42 23 64.5t65 22.5h88q43 0 65 -22.5t22 -64.5v-200q0 -87 -87 -87
h-88q-42 0 -65 22t-23 65v200zM121 415q0 -24 25 -24h61q25 0 25 24v195q0 24 -25 24h-61q-25 0 -25 -24v-195zM789 285q0 42 23 64.5t65 22.5h88q43 0 65 -22.5t22 -64.5v-200q0 -87 -87 -87h-88q-42 0 -65 22t-23 65v200zM866 87q0 -24 25 -24h61q25 0 25 24v195
q0 24 -25 24h-61q-25 0 -25 -24v-195zM133 -4l426 705h78l-427 -705h-77z" />
    <glyph glyph-name="guilsinglleft" unicode="&#x2039;" horiz-adv-x="319" 
d="M164 107l-96 96q-14 13 -20.5 25.5t-6.5 31.5v34q0 19 6.5 30.5t20.5 24.5l96 97h102l-140 -144q-11 -11 -11 -19v-14q0 -8 11 -19l140 -143h-102z" />
    <glyph glyph-name="guilsinglright" unicode="&#x203a;" horiz-adv-x="319" 
d="M53 107l141 143q6 6 8 10t2 9v14q0 9 -10 19l-141 144h102l96 -97q14 -13 20.5 -24.5t6.5 -30.5v-34q0 -19 -6.5 -31.5t-20.5 -25.5l-96 -96h-102z" />
    <glyph glyph-name="Euro" unicode="&#x20ac;" horiz-adv-x="609" 
d="M552 143q0 -72 -37.5 -109.5t-109.5 -37.5h-142q-72 0 -109.5 37.5t-37.5 109.5v115h-73v61h73v62h-73v61h73v112q0 72 37.5 109.5t109.5 37.5h142q72 0 109.5 -37.5t37.5 -109.5v-65h-97v70q0 56 -57 56h-126q-57 0 -57 -56v-117h153v-61h-153v-62h153v-61h-153v-120
q0 -56 57 -56h126q57 0 57 56v94h97v-89v0z" />
    <glyph glyph-name="trademark" unicode="&#x2122;" horiz-adv-x="846" 
d="M217 633v-386h-73v386h-116v64h305v-64h-116zM468 560v-313h-70v450h70l118 -228l118 228h70v-450h-70v314l-88 -170h-60z" />
    </font>
</defs>
</svg>
