<svg xmlns="http://www.w3.org/2000/svg" viewBox="0 0 106 16"><path fill="#fff" d="M25.53.037c-1.095.18-1.997.445-2.516 1.534-.466.978-.375 2.706-.375 3.8V12.4c.01.88.14 1.816.688 2.534C23.95 15.76 25.12 16 26.094 16h4.514c1.213-.002 2.556-.348 3.1-1.548.49-1.063.346-2.69.346-3.872V3.26c-.001-.42-.04-.792-.166-1.196-.095-.307-.195-.58-.384-.845C32.435-.294 30.136.022 28.492.037H25.53zm12.413 0c-1.095.18-1.998.445-2.517 1.534-.465.978-.375 2.706-.375 3.8V12.4c.01.88.14 1.816.69 2.534.622.815 1.792 1.055 2.767 1.056h4.514c1.213-.002 2.555-.348 3.1-1.548.49-1.063.345-2.69.345-3.872V3.26c0-.42-.04-.792-.165-1.196-.096-.307-.195-.58-.384-.845C44.847-.294 42.55.022 40.905.037h-2.962zM0 .093V15.86h8.534c.347-.004.656-.057.987-.166a2.89 2.89 0 0 0 .776-.382c1.33-.952 1.128-2.6 1.128-4.027 0-1.278.154-2.56-1.2-3.264-.26-.134-.492-.197-.776-.255.523-.297.913-.444 1.25-.986.436-.698.372-1.335.372-2.11 0-1.518.18-3.28-1.41-4.13C8.725.036 7.258.093 6.206.093H0zm12.342 0V15.86h9.52v-3.026h-5.995V.093h-3.526zm35.122 0V15.86h8.18c2.173-.003 3.24-1.462 3.244-3.52V3.682c-.002-1.52-.512-2.788-2.045-3.33-.867-.306-2.504-.26-3.456-.26h-5.924zm12.694 0V15.86h8.534c.348-.004.657-.057.987-.166a2.89 2.89 0 0 0 .776-.382c1.332-.952 1.13-2.6 1.13-4.027 0-1.278.153-2.56-1.2-3.264-.26-.134-.493-.197-.776-.255.522-.297.912-.444 1.25-.986.436-.698.372-1.335.372-2.11 0-1.518.18-3.28-1.41-4.13-.936-.502-2.403-.445-3.455-.445h-6.207zM72.29 15.86h3.314v-3.167h4.867v3.167h3.455v-3.026l-.102-1.197-1.304-4.012-1.11-3.308-.962-2.816-.47-1.407h-3.174c-.12 0-.36-.01-.464.04-.206.1-.376.786-.452 1.016l-2.798 8.164c-.326.977-.798 1.987-.8 3.027v3.52zM82.868.093V3.2h3.737v12.67h3.527V3.2H93.8V.093h-10.93zm11.707 0V15.86H98.1V9.313h4.373v6.546H106V.093h-3.526v6.194H98.1V.093h-3.526zM26.6 3.064h3.03c.257-.014.553-.038.754.156.16.154.158.327.163.533v8.376c-.001.273.027.54-.223.722-.226.165-.697.122-.976.122h-2.187c-.236 0-.56.017-.756-.13-.345-.26-.23-1.35-.23-1.77v-7.18c.002-.18.004-.393.092-.556.095-.17.167-.19.333-.274zm12.412 0h3.03c.258-.014.553-.038.754.156.16.154.16.327.163.533v8.376c-.001.273.028.54-.222.722-.226.165-.698.122-.977.122h-2.186c-.236 0-.56.017-.756-.13-.346-.26-.23-1.35-.23-1.77v-7.18c.002-.18.003-.393.092-.556.094-.17.166-.19.332-.274zM3.526 6.287V3.12H6.77c.2.001.45-.02.614.113.22.178.23.543.233.802V5.3c-.003.234-.02.635-.182.815-.18.197-.49.17-.735.17H3.526zm60.16 0V3.12h3.244c.2.001.45-.02.613.113.22.178.23.543.233.802V5.3c-.003.234-.02.635-.182.815-.18.197-.49.17-.735.17h-3.173zM51 12.833V3.2h3.526c.21 0 .448-.02.624.112.11.083.167.18.216.3v8.306c.006.637-.053.905-.77.915H51zm27.082-8.658l.443 1.478 1.25 4.083H76.31l1.175-3.942c.13-.42.327-1.313.588-1.62zM3.526 12.903v-3.66h2.82c.3 0 1.014-.042 1.266.092.316.17.285.444.286.753v2.04c-.002.596-.06.765-.705.774H3.526zm60.16 0v-3.66h2.82c.31 0 1.013-.042 1.265.092.317.17.286.444.286.753v2.04c-.001.596-.058.765-.705.774h-3.667z"/></svg>
