<svg xmlns="http://www.w3.org/2000/svg" viewBox="0 0 97 16"><path fill="#fff" d="M47.69.014V15.93h3.56V10h1.566c.157 0 .406-.014.54.07.208.14.353.815.432 1.067l1.01 3.358c.07.253.323 1.236.487 1.363.12.084.374.07.52.07h3.203l-.522-1.714-1.47-4.495c1.64-.3 1.99-2.177 1.993-3.568v-2.5c-.018-1.504-.4-2.95-1.993-3.47-.334-.113-.646-.17-.997-.17H47.69zm11.958 0V15.93H69.97v-3.006h-6.763v-3.71h5.98V6.223h-5.98V3.006h6.62V.014H59.65zM70.896 15.93h3.345v-3.217h4.912v3.217h3.417v-3.568c-.002-1.068-.495-2.206-.83-3.217l-1.827-5.422-.854-2.5c-.068-.196-.3-.983-.41-1.096-.13-.14-.387-.112-.564-.112H75.31c-.515.014-.445.084-.736.927l-2.846 8.344c-.34 1.026-.83 2.05-.83 3.147v3.498zM83.28.014V15.93h3.346V6.715l.873 1.713.89 1.714c.11.225.474 1.04.632 1.152.127.084.373.07.524.07h1.282c.687 0 .597-.028 1.12-1.082l1.104-2.275.69-1.362.004 3.076v6.21H97V0l-3.397.014-1.193 2.57-1.07 2.276-1.083 2.3-1.015-2.065-1.636-3.358-.53-1.068-.335-.576-.54-.07h-2.92zM0 .084V16h8.328c2.2-.028 3.2-1.686 3.203-3.71V3.793C11.53 2.5 11.144 1.096 9.894.464c-1.036-.52-2.35-.38-3.488-.38H0zM12.385 16h3.346v-3.217h4.91V16h3.417v-3.568c-.001-1.054-.495-2.206-.83-3.217l-1.826-5.422-.854-2.5c-.07-.196-.3-.983-.4-1.095-.13-.14-.387-.113-.563-.113H16.8c-.516.014-.446.085-.736.927l-2.847 8.344c-.34 1.026-.83 2.05-.83 3.147V16zM23.134.084v3.428c.01.815.513 1.475.93 2.135l2.128 3.427c.2.323.826 1.265.92 1.574.016.14.01.35 0 .49V16h3.498v-5c0-.183-.01-.393.05-.562l.943-1.573 1.644-2.64.97-1.573c.468-.857.378-1.35.378-2.276v-2.3h-3.417v2.852c-.001 1.068-.492 1.545-1.038 2.43L28.9 7.29l-2.14-3.71c-.172-.463-.138-.94-.138-1.433V.084h-3.488zm12.172 0V16h8.328c2.2-.028 3.2-1.686 3.203-3.71V3.793C46.835 2.5 46.45 1.096 45.2.464c-1.036-.52-2.35-.38-3.488-.38h-6.406zM51.25 6.94V3.006h3.488c.238.014.488 0 .628.24.1.155.084.436.084.618v2.22c-.001.267.034.604-.23.773-.205.126-.925.084-1.194.084H51.25zM3.56 12.924V3.147h3.56c.213 0 .5-.014.68.126.175.155.17.38.173.6v8.218c0 .604-.022.843-.712.843h-3.7zm35.306 0V3.147h3.56c.213 0 .51-.014.68.126.174.155.17.38.173.6v8.218c-.001.604-.022.843-.712.843h-3.7zm37.868-8.92l.376 1.292 1.006 3.287.326 1.138h-3.488l1.13-3.863c.13-.45.38-1.53.65-1.854zm-58.51.07l.376 1.293 1.007 3.286.326 1.138h-3.488l1.13-3.85c.13-.463.378-1.545.65-1.868z"/></svg>
